<svg xmlns="http://www.w3.org/2000/svg" viewBox="0 0 669.17 505.96"><defs><style>.cls-1{fill:#7d9ea7;}.cls-2{fill:#1d1d1b;}.cls-3{fill:#fff;}.cls-4{fill:none;}.cls-5{fill:#fbe7c2;}.cls-6{fill:#e46b36;}.cls-7{fill:#5e5e70;}.cls-8{fill:#601200;}</style></defs><g id="Calque_2" data-name="Calque 2"><g id="transformers"><g id="bras_droit" data-name="bras droit"><path class="cls-1" d="M583.89,218.11c-11,0-22.08-2.08-32.75-4.08-4.84-.91-9.84-1.86-14.77-2.59l-2-.29.3-2c.21-1.41.39-2.66.55-3.79.33-2.34.6-4.19,1-6.06.31-1.55.75-3,1.21-4.61.21-.7.42-1.41.62-2.16l.47-1.69,1.73.27c3.77.57,7.51,1.17,11.24,1.76,8,1.27,16.23,2.59,24.33,3.61a81,81,0,0,0,10.09.73h0c15.23,0,21.28-6.17,25.89-26.41.12-.59,1-7,1.65-12.22,1-7.68,1.47-11.1,1.57-11.57l.35-1.6,1.64.05a78.6,78.6,0,0,1,16.39,2.68l1.92.47-.48,1.92c-.7,2.77-1.74,8-2.94,14.13-2.28,11.58-5.11,26-7.22,31.23-4.1,10.16-11.78,17.19-21.65,19.8a73.88,73.88,0,0,1-19.15,2.38Z"/><path class="cls-2" d="M617,147.47a76.62,76.62,0,0,1,16,2.62c-2,8.15-7,37.36-10.07,45.1-3.65,9-10.54,16.05-20.32,18.63a72.05,72.05,0,0,1-18.66,2.32c-15.84,0-31.4-4.3-47.23-6.65.65-4.3,1-7.05,1.51-9.76.42-2.15,1.13-4.24,1.79-6.63,12,1.83,23.79,3.88,35.62,5.38a84.07,84.07,0,0,0,10.35.74c16.54,0,23.15-7.47,27.82-27.94.2-.9,3-22.91,3.22-23.81m-3.16-4-.7,3.2c-.1.5-.37,2.48-1.6,11.76-.66,5-1.47,11.18-1.63,12.08-4.39,19.24-9.77,24.81-24,24.81a79.32,79.32,0,0,1-9.86-.72c-8.06-1-15.93-2.27-24.26-3.6-3.67-.58-7.47-1.19-11.25-1.76l-3.46-.53-.94,3.38c-.2.73-.41,1.44-.61,2.12-.48,1.62-.93,3.14-1.25,4.78-.39,1.93-.66,3.81-1,6.19-.16,1.12-.33,2.36-.54,3.76l-.59,3.91,3.91.58c4.89.73,9.88,1.67,14.7,2.57,10.75,2,21.87,4.12,33.11,4.12a76.16,76.16,0,0,0,19.67-2.44c10.48-2.78,18.63-10.22,23-21,2.17-5.41,4.91-19.31,7.33-31.57,1.19-6.07,2.23-11.32,2.91-14l1-3.85-3.85-1a80.26,80.26,0,0,0-16.8-2.73l-3.28-.1Z"/><path class="cls-3" d="M626.4,161.67l-1,0h-.11l-1.22,0-1-.08c-.38,0-.77-.07-1.15-.12l-1-.13q-.56-.07-1.08-.18l-.92-.19-1-.24-.87-.25-.94-.32c-.27-.1-.55-.2-.81-.31s-.58-.25-.87-.39-.51-.24-.75-.37-.54-.3-.8-.46l-.69-.44c-.25-.17-.48-.35-.71-.53l-.1-.08-.54-.44c-.22-.2-.42-.4-.62-.61l-.1-.1c-.15-.15-.31-.31-.46-.48s-.34-.42-.51-.64l-.14-.18c-.12-.17-.25-.34-.36-.51s-.28-.46-.42-.69l-.14-.25c-.1-.17-.19-.34-.28-.52s-.22-.5-.32-.76l-.12-.28c-.07-.17-.15-.35-.21-.53s-.17-.58-.25-.88l-.08-.29a4.94,4.94,0,0,1-.13-.52c-.08-.36-.13-.73-.18-1.11l0-.22c0-.15,0-.3-.06-.45-.06-.63-.1-1.26-.1-1.88v-2h2.45c-8.78-3.55-16.8-8.51-20.43-19.71a24.76,24.76,0,0,1-1.17-5.54,18.58,18.58,0,0,1-.05-2.68,15.85,15.85,0,0,1,1.16-5.14,18.35,18.35,0,0,1,5-6.79l1.35-1.19,1.31,1.23c.58.55,1.13,1.06,1.66,1.54l.47.41,1,.9.54.43c.27.23.54.45.8.65l.39.29.13.09.68.48c.16.11.32.2.48.3l.61.35.44.21.54.23.4.14a4.37,4.37,0,0,0,.52.12l.38.08.52,0,.27,0h.48a5.24,5.24,0,0,0,.54-.06l.4-.07.61-.14.46-.13c.22-.07.45-.14.67-.23l.38-.13.26,0a8.36,8.36,0,0,0,4.83-2.31l.2-.2,2-1.1,4,1.4.28.25a9.88,9.88,0,0,0,6.66,2.36h.48l5.53,1.94.33-.88c.25-.67.48-1.32.72-1.92s.41-1,.61-1.43l.79-1.67,1.72.67c.63.25,1.25.52,1.87.8l.19.08c.59.27,1.17.55,1.74.83l.39.2.29.35a9,9,0,0,0,7.29,3.58,12.16,12.16,0,0,0,1.33-.08,6.61,6.61,0,0,0,2.61-1l.09-.06.18-.09a13.69,13.69,0,0,0,2.1-1.53c.46-.4,1-.87,1.52-1.43a9,9,0,0,0,1.86-3.74c.31-1,.67-2,1.18-3.21a2.7,2.7,0,0,1,4.91-.06c.17.36.36.72.56,1.09.81,1.51,1.58,2.94,1.15,4.38-.62,2.1-1.2,4.15-1.77,6.14l-.46,1.61c-.79,2.76-1.46,5.07-2.17,7.34-.61,1.94-1.19,3.66-1.78,5.28-.67,1.83-1.34,3.51-2,5.12a24.92,24.92,0,0,1-1.53,2.9l-.28.48a23.41,23.41,0,0,1-1.78,2.41l-.38.42a19.38,19.38,0,0,1-2.11,2.07l-.18.14a20.31,20.31,0,0,1-2.3,1.61l-.1.07a2.61,2.61,0,0,1-.28.17,20.31,20.31,0,0,1-2.56,1.25l-.53.21a23.57,23.57,0,0,1-2.76.87l-.38.08a25.84,25.84,0,0,1-2.68.47l4.13.71.12,1.53c.31,4-.5,7-2.48,9.18-2.59,2.88-7.13,4.33-14.3,4.56l-1.41,0Z"/><path class="cls-2" d="M662.91,102a.74.74,0,0,1,.67.43c.68,1.45,1.87,3.16,1.6,4.06-.79,2.68-1.52,5.26-2.23,7.77s-1.42,4.93-2.16,7.29q-.84,2.64-1.75,5.19c-.62,1.7-1.28,3.36-2,5h0a24.18,24.18,0,0,1-1.42,2.68c-.08.15-.17.3-.26.44a20,20,0,0,1-1.62,2.19l-.34.39a18.49,18.49,0,0,1-1.9,1.86l-.17.13a18.41,18.41,0,0,1-2.07,1.46l-.34.21a19.26,19.26,0,0,1-2.33,1.13l-.48.19a19.25,19.25,0,0,1-2.54.8l-.34.08c-.86.19-1.73.35-2.63.46l-.33,0c-.94.1-1.92.15-2.9.16h-.69l-1.58-.06-.74,0c-.77-.06-1.56-.14-2.35-.25h0c.2.88.41,1.77.61,2.65l10.67,1.83c.63,8-3.69,11.25-14.87,11.61l-1.35,0h-.63l-1,0-1.16,0-1-.08-1.08-.1-.92-.13-1-.17-.86-.17-.93-.23-.8-.23-.85-.28-.73-.28c-.27-.11-.52-.23-.78-.35l-.66-.33-.7-.4-.6-.39c-.22-.15-.42-.3-.62-.46s-.37-.29-.54-.44-.36-.35-.54-.53a5.22,5.22,0,0,1-.46-.48c-.17-.19-.32-.39-.47-.59s-.27-.35-.39-.53a7.33,7.33,0,0,1-.39-.67c-.11-.19-.22-.37-.32-.56s-.21-.5-.32-.76-.16-.39-.23-.59a8.42,8.42,0,0,1-.24-.86,5.87,5.87,0,0,1-.16-.6c-.07-.33-.12-.69-.17-1,0-.18-.06-.35-.08-.53,0-.55-.08-1.11-.09-1.69h11.6c-12.62-4.57-25-7.72-29.68-22.29a22.54,22.54,0,0,1-1.09-5.1,17.53,17.53,0,0,1,0-2.4,13.94,13.94,0,0,1,1-4.51,16.45,16.45,0,0,1,4.5-6l1.68,1.56.48.42,1.05.93c.2.16.38.3.56.46s.58.47.86.68l.56.42.76.53.54.34.71.4.53.26a6.5,6.5,0,0,0,.68.28,5.34,5.34,0,0,0,.52.18,5.2,5.2,0,0,0,.68.17,4.59,4.59,0,0,0,.51.1c.23,0,.47,0,.71.06s.24,0,.36,0H606l.47,0c.22,0,.45,0,.68-.08a4.54,4.54,0,0,0,.51-.09c.23,0,.47-.1.71-.16l.54-.16c.25-.07.5-.16.76-.25l.25-.08a10.35,10.35,0,0,0,5.94-2.86l1-.55,2.83,1a11.87,11.87,0,0,0,8,2.85h.16l4,1.4c-6.65,13-19,11.85-31,12.51.93.31,1.85.59,2.77.85l.71.2c.94.26,1.88.51,2.81.71h0c.91.19,1.8.34,2.69.46l.68.08a24.44,24.44,0,0,0,2.69.17h0c.45,0,.89,0,1.33-.06.2,0,.4,0,.61,0a17.61,17.61,0,0,0,1.91-.29c4.95-1,10.36-3.51,13.82-7.05,3-3.07,4.33-7.76,5.64-11.06.18-.47.37-.92.56-1.32.6.23,1.19.49,1.78.76l.19.08,1.67.8h0a11,11,0,0,0,8.83,4.32,13.73,13.73,0,0,0,1.56-.09,8.53,8.53,0,0,0,3.41-1.27l.25-.13a16.13,16.13,0,0,0,2.38-1.74c.53-.47,1.07-1,1.62-1.52,1.87-1.84,2-4.29,3.46-7.57a.7.7,0,0,1,.65-.42m0-4a4.65,4.65,0,0,0-4.27,2.8c-.55,1.27-.92,2.39-1.25,3.38a7.49,7.49,0,0,1-1.36,3c-.54.54-1,1-1.44,1.35a12.8,12.8,0,0,1-1.7,1.27,1.24,1.24,0,0,0-.2.1l-.11.06-.1.06a4.8,4.8,0,0,1-1.81.71,10.3,10.3,0,0,1-1.09.07,7.11,7.11,0,0,1-5.75-2.85l-.54-.67-.77-.39h0c-.58-.29-1.17-.57-1.77-.85l-.15-.06,0,0c-.75-.34-1.37-.6-2-.84l-3.43-1.34-1.57,3.34c-.21.45-.43,1-.66,1.55q-.2.48-.39,1l-1.41-.5-2-.69-.65-.22h-.9a7.94,7.94,0,0,1-5.28-1.89l-.57-.49-.7-.24-2.84-1-1.66-.58-1.55.85-.68.38-.31.16-.5.27-.4.41a6.48,6.48,0,0,1-3.73,1.74l-.41.06-.35.13-.25.09-.58.19-.4.11a4.15,4.15,0,0,1-.48.11,3,3,0,0,1-.32.06l-.39,0h-.51c-.11,0-.23,0-.34,0l-.22,0-.38-.09-.28-.1-.41-.17-.34-.17a5,5,0,0,1-.5-.29l-.42-.25-.61-.43L602,107l-.33-.24-.75-.61-.21-.17-.3-.25c-.31-.26-.64-.56-1-.86l-.22-.19-.23-.21c-.52-.47-1.06-1-1.63-1.51l-2.62-2.48-2.7,2.39a20.36,20.36,0,0,0-5.54,7.52,18.09,18.09,0,0,0-1.3,5.77,21.11,21.11,0,0,0,.05,3,27.71,27.71,0,0,0,1.26,6c3.37,10.4,10.16,15.69,17.89,19.34v1.75a20.35,20.35,0,0,0,.11,2.07c0,.2,0,.39.08.58v.09l0,.1c0,.36.1.78.2,1.22.05.22.1.44.16.65l0,.13,0,.13c.07.28.16.63.28,1s.17.44.26.66l0,.13,0,.12c.1.25.22.56.39.9s.23.43.35.65l.07.12,0,.09c.13.23.29.51.49.82s.3.42.45.62l.08.1.05.07c.16.21.35.47.59.75s.37.39.55.58l.08.08c.22.21.46.46.74.71s.43.36.65.53l.06.05c.27.21.53.41.82.61s.51.34.78.5.59.35.9.52l.84.42c.31.15.63.29,1,.43s.59.23.9.34.67.23,1,.34.62.19.94.27.72.18,1.09.27l1,.2,1.15.19,1,.14,1.21.13,1.08.08,1.28.05,1.12,0h.66c.48,0,1,0,1.48,0,7.85-.25,12.69-1.86,15.7-5.21,2.36-2.64,3.33-6.13,3-10.65l-.12-1.51.43-.16.58-.23a24.11,24.11,0,0,0,2.79-1.36l.35-.22.07,0a22.85,22.85,0,0,0,2.46-1.73l.26-.2a22.08,22.08,0,0,0,2.31-2.26l.08-.08.33-.39a24,24,0,0,0,1.94-2.62l.24-.39.07-.12a27.35,27.35,0,0,0,1.65-3.14c.73-1.65,1.41-3.36,2.09-5.24.6-1.64,1.19-3.39,1.81-5.36.72-2.3,1.4-4.62,2.19-7.39l.49-1.71c.56-2,1.13-4,1.74-6s-.44-4.24-1.31-5.86c-.2-.37-.38-.71-.52-1A4.71,4.71,0,0,0,662.91,98Z"/><path class="cls-3" d="M649.55,112.75l-.34,0c-.35,0-.66,0-1-.07l-.39-.07.29-2-.42,1.93c-.24,0-.47-.09-.7-.15l-.4-.14.55-1.89-.69,1.84a6.56,6.56,0,0,1-.62-.23l-.4-.19-.66-.36-.4-.27c-.22-.15-.39-.28-.56-.41s-.27-.23-.4-.35A6.17,6.17,0,0,1,643,110c-.13-.13-.25-.27-.37-.4s-.28-.32-.41-.49l-.31-.41-.36-.53c-.1-.15-.19-.3-.28-.45s-.21-.37-.31-.57-.16-.3-.24-.45-.18-.41-.27-.61l-.2-.48c-.09-.21-.16-.42-.24-.63l0-.13c-.05-.12-.09-.25-.13-.38s-.13-.43-.2-.66-.09-.34-.13-.48-.11-.48-.17-.72l-.1-.45c-.05-.28-.1-.55-.14-.81l-.07-.39c-.06-.4-.11-.81-.15-1.21-.28-2.85-.54-5.69-.81-8.53,0,.67-.09,1.34-.14,2-.07,1.23-.13,2.45-.17,3.68,0,.68,0,1.36-.08,2s-.11,1.45-.18,2.07a11.75,11.75,0,0,1-2.12,5.94,8,8,0,0,1-1.65,1.58,9.65,9.65,0,0,1-4.83,1.64l-.32,0c-.39,0-.68,0-1,0a11.3,11.3,0,0,1-2.25-.23l-.23,0a10,10,0,0,1-1.93-.65l-.27-.12a9.25,9.25,0,0,1-1.61-1l-.24-.18a9.54,9.54,0,0,1-1.31-1.31l-.19-.23a13.16,13.16,0,0,1-1-1.52l-.1-.18a18.43,18.43,0,0,1-.84-1.77l-.06-.17c-.23-.6-.42-1.17-.58-1.72a9.72,9.72,0,0,1-1.73,5.6,8.36,8.36,0,0,1-6,3.22h-1.32l-.72-.05-.9-.14-.73-.16c-.3-.07-.6-.16-.91-.25s-.48-.15-.71-.24-.6-.23-.9-.36l-.13,0-.56-.25c-.3-.14-.57-.3-.86-.45l-.13-.08c-.17-.09-.34-.18-.5-.28s-.52-.35-.77-.53l-.16-.13a4.56,4.56,0,0,1-.42-.31,8.54,8.54,0,0,1-.75-.71l-.08-.08a2.69,2.69,0,0,1-.33-.35,6.06,6.06,0,0,1-.89-1.4,42.76,42.76,0,0,1-2.8-9.09,43.92,43.92,0,0,1-.82-9.49c0-.82.07-1.68.15-2.7l.06-.67c.07-.78.16-1.52.27-2.23l0-.26c.11-.72.26-1.45.45-2.23,0-.16.09-.33.13-.5q.25-.94.54-1.74c0-.17.09-.26.12-.35a17.15,17.15,0,0,1,.78-1.76l.15-.29.06-.09a13.4,13.4,0,0,1,.82-1.31,3.08,3.08,0,0,1,.23-.32,11,11,0,0,1,1.16-1.3l.22-.2a9.94,9.94,0,0,1,1.19-.91l.34-.22a9,9,0,0,1,1.53-.74l.27-.09a10.14,10.14,0,0,1,1.44-.37l.43-.08a12.19,12.19,0,0,1,1.68-.12,14.08,14.08,0,0,1,2.44.22l.51.11.2.05a17.12,17.12,0,0,1,1.81.47l.88.29c.58.21,1.19.45,1.86.74l.24.1.59.27c.71.33,1.37.66,2,1,.31-.09.61-.2.92-.3l.72-.26,1-.35,2.11-.79,1-.37.7-.24c.34-.12.67-.22,1-.31l.68-.2c.35-.09.7-.16,1-.23l.15,0,.47-.09a13,13,0,0,1,1.35-.12l.35,0h0a8.28,8.28,0,0,1,1.78.17c3.56.73,6.52,3.37,8.48,5.12l.72.64L640,72.6l.67-.2L642,72l2.37-.76c.6-.19,1.18-.37,1.75-.53l.19-.06q.91-.25,1.77-.45l.37-.07.15,0c.43-.08.85-.14,1.25-.19l.62,0h.46c.26,0,.52,0,.77,0l.56,0a6.73,6.73,0,0,1,1.49.4h0l.23.1c2.51,1.18,4.34,3.72,5.43,5.64a25.2,25.2,0,0,1,1.72,3.71,24.54,24.54,0,0,1,1.05,3.74,35.85,35.85,0,0,1,.61,6.55,36.58,36.58,0,0,1-.27,4.46,32.42,32.42,0,0,1-.8,4.35c-.18.71-.38,1.41-.6,2.09-1.45,4.38-5.71,11.13-10.25,11.68a11.87,11.87,0,0,1-1.33.08Z"/><path class="cls-2" d="M628,68.93a6.72,6.72,0,0,1,1.35.13c4.06.84,7.46,4.8,9.12,6,.7-.16,1.39-.34,2.08-.53l.69-.2,1.39-.42.9-.28,1.48-.48,1.7-.52.18,0c.57-.17,1.12-.3,1.65-.42L649,72c.37-.07.74-.13,1.09-.16l.51,0h.36a6.08,6.08,0,0,1,.61,0c.14,0,.28,0,.42,0a4.55,4.55,0,0,1,1.21.35h0a11.43,11.43,0,0,1,4.56,4.82,24.58,24.58,0,0,1,1.58,3.42,22.24,22.24,0,0,1,1,3.43,33.07,33.07,0,0,1,.57,6.19,35,35,0,0,1-.25,4.22,30.86,30.86,0,0,1-.75,4.1q-.26,1-.57,2c-1.36,4.13-5.27,9.93-8.61,10.34a10.47,10.47,0,0,1-1.09.07h0l-.3,0a5.67,5.67,0,0,1-.73-.06c-.13,0-.25,0-.37-.07a5.61,5.61,0,0,1-.59-.13c-.13,0-.25-.08-.38-.12s-.35-.12-.51-.19l-.37-.19a3.47,3.47,0,0,1-.46-.25,4,4,0,0,1-.34-.23q-.21-.13-.42-.3l-.31-.27c-.13-.12-.26-.23-.38-.36l-.29-.31c-.12-.13-.23-.27-.34-.4l-.26-.35-.17-.25-.13-.2-.24-.38-.27-.49c-.07-.13-.14-.26-.2-.4s-.16-.35-.24-.52l-.18-.43-.21-.56-.15-.44-.18-.6-.12-.44-.15-.65c0-.14-.07-.28-.09-.42s-.09-.5-.13-.75,0-.23-.07-.35c-.05-.37-.1-.74-.13-1.12-.58-5.85-1.1-11.71-1.64-17.56l-2.36-.11c-.28,3.74-.65,7.48-.88,11.23-.08,1.24-.15,2.49-.18,3.74,0,.66,0,1.32-.08,2s-.09,1.31-.17,1.94a10,10,0,0,1-1.73,5,5.71,5.71,0,0,1-1.22,1.18,7.77,7.77,0,0,1-3.87,1.29h-.34c-.25,0-.51,0-.76,0h0a10.72,10.72,0,0,1-1.85-.19l-.19,0a8.21,8.21,0,0,1-1.54-.53l-.21-.09a7.64,7.64,0,0,1-1.28-.8l-.19-.15a8.17,8.17,0,0,1-1.06-1.06,1.46,1.46,0,0,1-.16-.19,9.59,9.59,0,0,1-.87-1.28l-.12-.21a15.54,15.54,0,0,1-.7-1.48,1.07,1.07,0,0,0-.07-.19c-.2-.54-.39-1.1-.55-1.68l0-.13c-.16-.61-.3-1.24-.41-1.87-.67-3.82-.75-7.75-1.06-11.63-.2-2.45-.34-4.9-.51-7.36l-3.17.26c.15,3,.14,6.12.23,9.17.07,2.29.2,4.57.49,6.82.1.75.22,1.49.36,2.23,1.06,5.6-.82,9.53-5.69,10.08h-1c-.19,0-.39,0-.59-.05a7,7,0,0,1-.76-.11l-.62-.13-.8-.23-.63-.2-.79-.32c-.2-.09-.41-.17-.6-.27s-.51-.26-.76-.4l-.55-.31a8.29,8.29,0,0,1-.68-.48c-.15-.11-.32-.21-.46-.33a8.28,8.28,0,0,1-.6-.58c-.09-.1-.21-.2-.3-.3a4,4,0,0,1-.59-.93,41.41,41.41,0,0,1-2.68-8.67,43.06,43.06,0,0,1-.78-9.07c0-.91.08-1.76.15-2.6,0-.21,0-.43,0-.64.07-.73.16-1.44.26-2.11l0-.24c.12-.74.27-1.42.43-2.08,0-.17.08-.33.13-.49a15.9,15.9,0,0,1,.48-1.56,2.64,2.64,0,0,1,.1-.3,15.14,15.14,0,0,1,.69-1.57c.06-.12.13-.23.19-.34a12.3,12.3,0,0,1,.7-1.11l.18-.26a9,9,0,0,1,1-1.07l.22-.2a8.7,8.7,0,0,1,.91-.69l.27-.18a7.07,7.07,0,0,1,1.21-.58l.23-.08a8.41,8.41,0,0,1,1.15-.29c.11,0,.23,0,.35-.06a9.13,9.13,0,0,1,1.4-.11h0a12.7,12.7,0,0,1,2.07.2c.2,0,.42.09.63.14.53.11,1.08.25,1.64.42l.8.27c.57.2,1.14.43,1.73.69l.78.34c.85.4,1.72.84,2.63,1.36.6-.17,1.2-.36,1.78-.56l.64-.23,1.13-.41,1.13-.42,1-.36,1-.36.66-.23c.31-.11.62-.2.92-.29l.62-.18c.32-.09.63-.15.93-.21l.53-.11a8.78,8.78,0,0,1,1.12-.1l.28,0h0m0-4h0c-.17,0-.34,0-.51,0-.53,0-1,.07-1.48.14-.19,0-.39.07-.58.12l-.13,0c-.35.07-.74.15-1.16.27l-.7.2-1.08.34-.73.25-1.06.38-.26.1-.73.27-1.11.42-1,.36-.06,0-.21.08-.38.13-.1,0c-.44-.23-.89-.45-1.36-.67l-.66-.29-.22-.09c-.71-.31-1.36-.57-2-.8l-.95-.32c-.65-.2-1.3-.37-2-.51l-.16,0c-.21-.05-.43-.1-.63-.13a15.78,15.78,0,0,0-2.71-.25h-.06a13.37,13.37,0,0,0-2,.15l-.44.08h-.07a12.3,12.3,0,0,0-1.64.42l-.39.13a11.62,11.62,0,0,0-1.85.89l-.37.24,0,0a13.36,13.36,0,0,0-1.37,1l-.32.29a13.53,13.53,0,0,0-1.38,1.54l-.24.33a16,16,0,0,0-1,1.52l0,.08c-.06.12-.13.24-.19.37a18.36,18.36,0,0,0-.88,2l-.12.33c-.22.62-.41,1.24-.59,1.9l0,.09c0,.16-.09.32-.13.49-.2.82-.35,1.6-.48,2.37,0,.09,0,.18,0,.27-.11.72-.2,1.49-.29,2.35l-.06.7c-.08,1-.13,1.93-.15,2.81a46,46,0,0,0,.85,9.92,45.29,45.29,0,0,0,2.93,9.5,8.1,8.1,0,0,0,1.18,1.87,7.27,7.27,0,0,0,.5.53l0,0a10.54,10.54,0,0,0,.94.89c.17.14.35.28.54.41l.09.06.07,0a10.5,10.5,0,0,0,.87.6l.58.34.13.07c.33.18.64.35,1,.51l.65.29.11,0c.34.14.67.28,1,.4l.77.25c.38.12.72.21,1.06.3s.55.12.83.17a10.12,10.12,0,0,0,1,.16,8.54,8.54,0,0,0,.86.07l.59,0,.55,0h.23l.26,0a10.26,10.26,0,0,0,7.35-4c.23-.31.44-.64.64-1,.19.27.38.54.59.79a2,2,0,0,0,.22.27,12.17,12.17,0,0,0,1.57,1.56l.25.2a11,11,0,0,0,2,1.25l.3.14a11.86,11.86,0,0,0,2.33.79l.32.06a13.09,13.09,0,0,0,2.57.25c.34,0,.68,0,1,0l.46,0a11.67,11.67,0,0,0,5.79-2,9.76,9.76,0,0,0,2.07-2,10.85,10.85,0,0,0,1.32-2.22l.15.4c.06.16.13.33.2.49l0,0c.09.23.2.45.3.67l.27.53.36.65c.1.17.21.34.32.51s.11.17.16.25l.06.09.2.28c.11.16.24.33.36.49s.32.39.49.58.28.31.42.45.37.36.56.53l.48.42c.21.16.42.32.64.47l0,0,.5.32c.23.14.47.27.71.4l.07,0,.51.25c.25.11.51.2.77.29h0l0,0,.06,0,.54.17c.33.1.63.15.85.2h.06c.21,0,.39.08.58.1a9.29,9.29,0,0,0,1,.09l.5,0a13.78,13.78,0,0,0,1.6-.09c6-.73,10.59-9.09,11.89-13,.24-.72.46-1.47.65-2.23a37.06,37.06,0,0,0,.84-4.6,38.39,38.39,0,0,0-.36-11.61,26,26,0,0,0-1.14-4,27.18,27.18,0,0,0-1.85-4c-1.23-2.16-3.33-5-6.31-6.44l0,0,0,0-.14-.06-.17-.07h0a8.43,8.43,0,0,0-1.86-.5c-.21,0-.43,0-.64-.06h-.07c-.31,0-.63,0-.93,0l-.56,0-.73,0c-.44,0-.92.12-1.41.22l-.11,0a3.4,3.4,0,0,0-.46.09c-.63.13-1.26.29-1.89.47l-.18.06c-.6.17-1.2.36-1.81.55l-1.5.48-.7.22-.17,0-1.32.4-.17,0-.47.14h0c-2.11-1.89-5.28-4.68-9.31-5.51A10.66,10.66,0,0,0,628,65Z"/></g><path class="cls-4" d="M523.67,417.82c.5,10.63,1.71,18,.85,24.53a65.23,65.23,0,0,0,2-18.65,40.4,40.4,0,0,1,.88-9.17,35.86,35.86,0,0,1,4.08-11.11C525.73,409.12,523.53,414.72,523.67,417.82Z"/><path class="cls-4" d="M528.33,438.94c-.1-.15-.17-.29-.26-.44l-.24,1.14C528,439.4,528.15,439.18,528.33,438.94Z"/><path class="cls-1" d="M496.83,450a2,2,0,0,1-1.76-1.08c-2.71-5.31-5.85-11.17-8.88-16.84-5.59-10.44-10.87-20.3-13.14-26.09-5.91-15.09-11.66-19.69-24.57-19.69-2.22,0-4.7.14-7.58.42-5.45.53-10.91,1-16.49,1.55l-7.85.72h-.18a2,2,0,0,1-1.33-.51,2,2,0,0,1-.65-1.46V371.75a2,2,0,0,1,1.75-2l7.85-.93c5.53-.66,10.76-1.28,16.06-1.79,3-.29,5.83-.44,8.45-.44,20.75,0,32.88,8.92,41.87,30.79,1.93,4.69,7.72,15.86,13.85,27.69l3.73,7.2a2,2,0,0,1-.26,2.2,65.26,65.26,0,0,0-6.86,9.31c-.72,1.42-1.41,3-2.18,4.91a2,2,0,0,1-1.74,1.25Z"/><path class="cls-2" d="M448.51,368.61c20.08,0,31.43,8.59,40.05,29.56,2.36,5.74,10.39,21,17.65,35.05a65.61,65.61,0,0,0-7.13,9.71c-.83,1.64-1.57,3.35-2.25,5.08-7.63-15-18.48-33.94-21.94-42.76-6.15-15.69-12.47-20.94-26.41-20.94-2.36,0-4.94.15-7.78.43-8,.77-15.95,1.49-24.32,2.27V371.75c8.35-1,16.1-2,23.87-2.72q4.37-.42,8.26-.42m0-3.95c-2.68,0-5.59.15-8.64.44-5.33.52-10.58,1.15-16.13,1.81l-7.81.92a4,4,0,0,0-3.5,3.92V387a3.93,3.93,0,0,0,3.95,3.94h.36l7.82-.73c5.68-.52,11.06-1,16.53-1.55,2.82-.27,5.23-.41,7.39-.41,12,0,17.13,4.14,22.74,18.44,2.31,5.9,7.61,15.8,13.23,26.29,3,5.66,6.16,11.52,8.86,16.82a4,4,0,0,0,3.51,2.15H497a3.94,3.94,0,0,0,3.48-2.49c.74-1.87,1.41-3.38,2.11-4.74a63.68,63.68,0,0,1,6.6-8.93,3.93,3.93,0,0,0,.51-4.38c-1.23-2.39-2.49-4.82-3.74-7.22-5.83-11.27-11.87-22.91-13.76-27.52-4.71-11.46-10.12-19.19-17-24.31s-15.7-7.7-26.67-7.7Z"/><polygon class="cls-1" points="518.71 458.79 518.71 458.79 518.71 458.79 518.71 458.79"/><polyline class="cls-2" points="518.71 458.79 518.71 458.79 518.71 458.79"/><path class="cls-5" d="M559.35,485.15a2,2,0,0,1-1.15-.37c-2.28-1.63-4.44-3.2-6.53-4.72-4.39-3.2-8.53-6.22-12.74-9a54.53,54.53,0,0,0-6.1-3.28c-5.8-2.8-12.37-6-13.1-12.84a2,2,0,0,1,.34-1.34s.45-.63.54-.77c2.3-3.36,4-7.8,5.29-13.57a2.06,2.06,0,0,1,.2-.54,2.18,2.18,0,0,1,0-.57l.13-.59a39.89,39.89,0,0,0,.33-8.88c-.05-1.39-.09-2.83-.08-4.26a1.84,1.84,0,0,1,.12-.66l.16-.46a50.34,50.34,0,0,0,2.46-8.18c1.72-9.33,10.63-17.69,21.19-19.89a23.34,23.34,0,0,1,4.65-.49c7.17,0,13.61,3.58,19.14,10.65,2.92,3.72,6.85,9.34,7.33,15,2.08,24.85-4.7,45.82-20.73,64.11A2,2,0,0,1,559.35,485.15Z"/><path class="cls-2" d="M555.09,396.68c7.26,0,13.06,4.1,17.58,9.88,3.17,4.05,6.51,9.12,6.92,14,1.94,23.09-3.92,44-20.24,62.64-7.11-5.1-13.1-9.63-19.32-13.8-6.57-4.39-17.48-6.61-18.34-14.69.18-.27.37-.52.55-.78,2.81-4.11,4.49-9.26,5.59-14.27.17-.24.32-.46.5-.7-.1-.15-.17-.29-.26-.44l.12-.6c.85-4.36.25-9,.29-13.51a54.39,54.39,0,0,0,2.71-8.95c1.62-8.78,10.34-16.38,19.66-18.32a21,21,0,0,1,4.24-.44m0-3.95a25.13,25.13,0,0,0-5.05.53c-11.31,2.35-20.87,11.38-22.73,21.46a48.82,48.82,0,0,1-2.37,7.86l-.17.46a4.22,4.22,0,0,0-.24,1.32c0,1.47,0,2.93.09,4.34a38.85,38.85,0,0,1-.3,8.45l-.06.26-.06.31a3.2,3.2,0,0,1-.23,1.07c-1.2,5.52-2.84,9.74-5,12.89l-.25.36-.28.39a4,4,0,0,0-.68,2.68c.85,7.95,8.25,11.53,14.2,14.41a50,50,0,0,1,5.86,3.14c4.17,2.79,8.31,5.8,12.68,9,2.09,1.52,4.26,3.1,6.54,4.74a4,4,0,0,0,2.3.74,3.94,3.94,0,0,0,3-1.35c16.4-18.72,23.34-40.17,21.2-65.57-.52-6.21-4.67-12.15-7.74-16.08-5.92-7.56-12.89-11.4-20.69-11.4Z"/><path class="cls-5" d="M531.92,500.35c-6.69,0-14-3.1-22.41-9.47-3.85-2.92-5.84-6.18-5.92-9.7-.13-6.3,5.87-12.16,11.77-17.06a44.45,44.45,0,0,1,5.19-3.56c.6-.36,1.16-.7,1.63-1l1.2-.79,35,27.91-2.22,1.51c-1.57,1.06-3.14,2.26-4.67,3.43-5.63,4.3-11.46,8.75-19.58,8.75Z"/><path class="cls-2" d="M523.27,461.19l31.79,25.34c-7.2,4.89-13.53,11.84-23.14,11.84-5.66,0-12.45-2.4-21.22-9.06-10.09-7.66-3.81-15.59,5.92-23.67a65.68,65.68,0,0,1,6.65-4.45m.22-4.87-2.39,1.58-1.58,1a46.07,46.07,0,0,0-5.42,3.72c-6.26,5.2-12.64,11.48-12.48,18.62.09,4.15,2.35,7.93,6.7,11.23,8.75,6.64,16.47,9.87,23.6,9.87,8.79,0,15.16-4.86,20.78-9.15,1.57-1.2,3.06-2.34,4.58-3.37l4.43-3-4.19-3.34L525.73,458.1l-2.24-1.78Z"/><path class="cls-6" d="M502.94,480a2,2,0,0,1-1.2-.41c-2.4-1.83-10.91-16.66-10.33-19.84A65.19,65.19,0,0,1,495,447.28c.81-2,1.56-3.72,2.34-5.25a67.86,67.86,0,0,1,7.38-10.1,44.18,44.18,0,0,1,3.33-3.52,2,2,0,0,1,1.32-.51l.34,0a1.94,1.94,0,0,1,1.39,1,27.89,27.89,0,0,1,1.76,4.34c.2.59.41,1.21.65,1.84,1.25-5.28,2.17-10.4,3.13-15.75.78-4.38,1.59-8.91,2.63-13.74a15.64,15.64,0,0,1,13.87-12.29l.64-.06c5.84-.56,9.46-.9,10.35-.9a2.57,2.57,0,0,1,.57.05,2,2,0,0,1,0,3.85,17.39,17.39,0,0,0-11.54,8.17,2.2,2.2,0,0,1-.3.37c-5.13,5.11-7.33,10.28-7.2,12.92.15,3.43.39,6.59.61,9.37.46,6.09.83,10.91.22,15.51a1.31,1.31,0,0,1-.06.27,39.69,39.69,0,0,1-16.15,22.68c-2.51,1.76-3.65,6.21-4.66,10.14-.26,1-.51,2-.78,2.9a2,2,0,0,1-1.28,1.32A2.16,2.16,0,0,1,502.94,480Z"/><path class="cls-2" d="M544.12,394.34h.12a19.29,19.29,0,0,0-12.78,9.07c-5.73,5.7-7.93,11.3-7.79,14.4.5,10.63,1.71,18,.85,24.53A37.76,37.76,0,0,1,509.13,464c-3.82,2.68-4.82,9.39-6.19,14.09-2.15-1.64-10-15.78-9.59-17.92A62.81,62.81,0,0,1,496.83,448c.68-1.73,1.42-3.44,2.25-5.08a65.61,65.61,0,0,1,7.13-9.71,39.21,39.21,0,0,1,3.15-3.34c1.49,2.73,2,6.36,4.63,11.19,3.35-11.89,4.48-22.41,7.2-35a13.71,13.71,0,0,1,12.12-10.74c4.87-.47,9.91-1,10.81-1m0-3.95c-1,0-4,.28-10.57.92l-.61.06a17.59,17.59,0,0,0-15.61,13.84c-1,4.86-1.86,9.4-2.64,13.8-.56,3.13-1.11,6.19-1.72,9.25l-.14-.27a3.94,3.94,0,0,0-2.8-2,3.79,3.79,0,0,0-.67-.06,3.92,3.92,0,0,0-2.63,1,42.06,42.06,0,0,0-3.51,3.7,68.62,68.62,0,0,0-7.65,10.5c-.81,1.59-1.58,3.31-2.41,5.41a67.55,67.55,0,0,0-3.7,12.87c-.19,1.1-.52,2.92,4.27,11.74,1.67,3.07,4.78,8.46,6.81,10a4,4,0,0,0,2.4.81,4.06,4.06,0,0,0,1.23-.2,4,4,0,0,0,2.56-2.64c.27-.95.52-1.92.79-3,.88-3.42,2-7.67,3.88-9a41.71,41.71,0,0,0,16.93-23.78,4.32,4.32,0,0,0,.1-.54c.64-4.8.25-9.95-.21-15.91-.21-2.77-.45-5.91-.6-9.31-.09-1.86,1.6-6.43,6.62-11.43a3.31,3.31,0,0,0,.59-.75,15.37,15.37,0,0,1,10.31-7.27,3.95,3.95,0,0,0,0-7.69,4.16,4.16,0,0,0-1-.11Z"/><path class="cls-6" d="M503,480a2.2,2.2,0,0,1-1.26-.43,2,2,0,0,1-.76-1.34,2,2,0,0,1,.43-1.47l.43-.52a2,2,0,0,1,2.54-.45,2,2,0,0,1,.8,2.46A2.46,2.46,0,0,1,503,480Z"/><path class="cls-2" d="M503.37,477.52c-.15.35-.26.55-.37.55l-.06,0,.43-.52m0-3.94a3.93,3.93,0,0,0-3.06,1.45l-.18.21-.25.32a3.94,3.94,0,0,0,.66,5.62A4.12,4.12,0,0,0,503,482a4.24,4.24,0,0,0,4-2.95,4,4,0,0,0-1.6-4.92,3.91,3.91,0,0,0-2-.56Z"/><path class="cls-5" d="M502.94,480a2,2,0,0,1-.92-.23,2,2,0,0,1-1-2.3c.26-.87.5-1.8.75-2.77,1.17-4.59,2.51-9.79,6.21-12.39a35.9,35.9,0,0,0,14.62-20.51,63,63,0,0,0,1.91-18.08,42.2,42.2,0,0,1,.92-9.62,37.75,37.75,0,0,1,4.32-11.73,21.2,21.2,0,0,1,14-10,1.74,1.74,0,0,1,.45-.06,2,2,0,0,1,.92,3.72c-9.16,4.84-13.67,12.88-14.63,26.07,0,.64-.07,1.36-.08,2.25,0,1.34,0,2.74.09,4.09a43.43,43.43,0,0,1-.41,9.78l-.13.61-.24,1.17c-1.38,6.27-3.3,11.17-5.89,15l-.56.79c-.94,1.35-1.93,2.72-3,4.17-3.22,4.26-6.71,8.41-10.08,12.43-1.78,2.11-3.56,4.23-5.31,6.36l-.42.52A2,2,0,0,1,502.94,480Z"/><path class="cls-2" d="M544.24,394.35c-11.2,5.92-14.83,16.08-15.68,27.66,0,.79-.07,1.59-.08,2.38,0,4.54.56,9.15-.29,13.51l-.12.6-.24,1.14c-1.1,5-2.78,10.16-5.59,14.27-.18.26-.37.51-.55.78q-1.46,2.07-3,4.1h0c-4.86,6.42-10.24,12.48-15.34,18.73l-.43.52c1.37-4.7,2.37-11.41,6.19-14.09a37.76,37.76,0,0,0,15.39-21.6,65.23,65.23,0,0,0,2-18.65,40.4,40.4,0,0,1,.88-9.17,35.86,35.86,0,0,1,4.08-11.11,19.29,19.29,0,0,1,12.78-9.07m0-4a3.92,3.92,0,0,0-.89.1,23.36,23.36,0,0,0-15.26,10.87,39.64,39.64,0,0,0-4.57,12.33,43.89,43.89,0,0,0-1,10.07,61.7,61.7,0,0,1-1.84,17.52,34.1,34.1,0,0,1-13.85,19.43c-4.3,3-5.79,8.83-7,13.51-.24,1-.48,1.88-.72,2.71a4,4,0,0,0,2,4.6,4,4,0,0,0,1.84.45,3.94,3.94,0,0,0,3.06-1.46l.21-.25.21-.26c1.74-2.12,3.54-4.27,5.28-6.34,3.4-4,6.9-8.21,10.15-12.51,1.12-1.48,2.13-2.86,3.08-4.23l.21-.3.36-.51c2.73-4,4.75-9.12,6.18-15.65.09-.4.17-.8.25-1.2l.05-.21.09-.42a45.25,45.25,0,0,0,.44-10.22c0-1.39-.1-2.7-.09-4,0-.86,0-1.52.08-2.12.9-12.43,5.1-20,13.59-24.47a3.94,3.94,0,0,0-1.85-7.43Z"/><g id="contour"><circle class="cls-2" cx="313.7" cy="203.09" r="201.12" transform="translate(-51.73 281.3) rotate(-45)"/><path class="cls-2" d="M313.7,4c110,0,199.14,89.16,199.14,199.14S423.68,402.24,313.7,402.24,114.55,313.08,114.55,203.09,203.71,4,313.7,4m0-3.95a203.14,203.14,0,0,0-79.06,390.22A203.14,203.14,0,0,0,392.75,16,201.85,201.85,0,0,0,313.7,0Z"/></g><g id="jambe_gauche" data-name="jambe gauche"><path d="M140.28,452.75c-3-25,11-57.27,27.82-64.06C127.46,431.8,133.66,471,187.91,502,164.33,498.1,143,475.14,140.28,452.75Zm62.24,31.95c-7.41,11.68-13.71,13.8-24.66,8.3-37-18.6-43.7-66.9-13.31-95.5,4.33-4.07,7.62-3.41,11.18.84-3.6,6-5.91,12-1.95,18.65,2.25-8.38,2-18.67,13.84-18.76,3.36,0,6.75,4.52,9.08,6.21-5,3.72-10.44,5.6-11.51,8.89-3.49,10.73,9.2,7.45,12.68,12.53-5.18,8.82-12.1,3.76-19,3.4,2.74,3,7.12,4,8.88,6.72,2,3.1,1.67,7.71,2.08,10.08l-13,8L178,455.9c9.95-4.25,13.31-3.87,20.91,2.35C206.78,464.68,208.28,475.62,202.52,484.7Z"/><path class="cls-1" d="M229.38,429.26c-3.66,0-7.8-.19-12.64-.59-1.05-.09-11.15-1.79-25.29-4.19-6.77-1.15-13.17-2.23-13.76-2.31L176,422l0-1.75c0-3.06,1-6.21,2-9.25a32.42,32.42,0,0,0,1.78-7.33l.16-2.48,2.38.72c6.31,1.91,22.75,6.36,39,6.36h0c17.87,0,28.87-5.3,32.71-15.75a14.69,14.69,0,0,1,1.16-2.28c.15-.25.3-.5.44-.75l.63-1.17,17.92,2.07-.33,2c-.08.52-.14,1-.2,1.48a14.14,14.14,0,0,1-.63,3.21c-8.59,23.77-20,32.19-43.58,32.19Z"/><path class="cls-2" d="M257.3,390.38l14.54,1.68a25.68,25.68,0,0,1-.74,4.34c-8.72,24.14-20.34,30.89-41.72,30.89-3.83,0-8-.22-12.48-.59-1.74-.14-37.37-6.28-39-6.49,0-5.25,3.44-11.22,3.78-16.46,10.15,3.07,25.39,6.44,39.54,6.44,15.55,0,29.8-4.07,34.56-17a22,22,0,0,1,1.48-2.77m-2.19-4.22-1.28,2.34c-.12.23-.25.45-.39.68a15.4,15.4,0,0,0-1.32,2.61c-3.52,9.59-13.91,14.45-30.86,14.45-16,0-32.17-4.38-38.4-6.27l-4.76-1.44-.32,5a31.16,31.16,0,0,1-1.69,6.86,33.68,33.68,0,0,0-2.1,9.83l0,3.5,3.47.45c.66.09,7.26,1.2,13.64,2.29,17.12,2.9,24.45,4.13,25.49,4.21,4.9.41,9.09.61,12.81.61,24.29,0,36.61-9.08,45.43-33.5a15.78,15.78,0,0,0,.74-3.65c.06-.48.11-.93.19-1.39l.67-4.08-4.11-.48-14.54-1.68-2.65-.3Z"/><path class="cls-6" d="M187.79,497.87c-3.17,0-6.6-1-10.81-3.1-18.09-9.09-30.1-25.53-33-45.11-2.89-19.87,4.1-39.41,19.18-53.6,2.33-2.19,4.54-3.26,6.74-3.26,2.53,0,4.86,1.36,7.3,4.28a2,2,0,0,1,.18,2.28,25,25,0,0,0-3.56,8.46c1.6-5.86,4.62-11.49,13.75-11.56,3.21,0,6,2.63,8.19,4.75a23.57,23.57,0,0,0,2.06,1.83,2,2,0,0,1,.82,1.59,2,2,0,0,1-.81,1.59c-1.78,1.32-3.61,2.42-5.22,3.39-2.74,1.64-5.1,3.06-5.58,4.53-.6,1.84-.67,3.21-.21,4.08.71,1.32,2.88,1.94,5.17,2.6,2.71.77,5.78,1.65,7.47,4.12a2,2,0,0,1,.07,2.12C197.14,431,194,433,189.82,433a16.31,16.31,0,0,1-2.41-.19,8.74,8.74,0,0,1,2,2.1c1.75,2.69,2,6.15,2.17,8.69,0,.81.11,1.58.2,2.12a2,2,0,0,1-.91,2l-6.14,3.76a16.29,16.29,0,0,1,3.41-.39c4.31,0,7.81,2.15,12,5.61,8.71,7.11,10.37,19,4,29C198.81,494.24,193.9,497.87,187.79,497.87Z"/><path class="cls-2" d="M169.94,394.78c2,0,3.85,1.25,5.79,3.56-3.6,6-5.91,12-1.95,18.65,2.25-8.38,2-18.67,13.84-18.76h0c3.35,0,6.73,4.52,9,6.21-5,3.72-10.44,5.6-11.51,8.89-3.49,10.73,9.2,7.45,12.68,12.53-2.37,4-5.11,5.17-8.05,5.17-3.47,0-7.22-1.57-11-1.77,2.74,3,7.12,4,8.88,6.72,2,3.1,1.67,7.71,2.08,10.08l-13,8L178,455.9c4.32-1.84,7.4-2.82,10.12-2.82,3.55,0,6.49,1.65,10.79,5.17,7.88,6.43,9.38,17.37,3.62,26.45-4.85,7.64-9.22,11.2-14.73,11.2-2.91,0-6.14-1-9.93-2.9-37-18.6-43.7-66.9-13.31-95.5,2-1.85,3.72-2.72,5.39-2.72m0-3.95c-2.73,0-5.38,1.24-8.09,3.8-15.56,14.63-22.77,34.8-19.78,55.32,3,20.22,15.35,37.2,34,46.58,4.5,2.26,8.21,3.31,11.7,3.31,8.69,0,14.22-7,18.07-13,6.77-10.68,4.89-24-4.46-31.62-3.42-2.8-6.42-4.8-9.77-5.63l.24-.14a3.94,3.94,0,0,0,1.82-4c-.07-.44-.12-1.17-.18-1.93-.17-2.45-.4-5.71-1.88-8.6,4-.52,7.19-2.82,9.64-7a4,4,0,0,0-.14-4.23c-2.1-3.06-5.68-4.08-8.55-4.91-1.28-.37-3.67-1.05-4-1.63,0,0-.3-.59.33-2.54.25-.77,3.05-2.45,4.72-3.45s3.53-2.11,5.39-3.49a3.95,3.95,0,0,0,0-6.37,23.9,23.9,0,0,1-1.86-1.66c-2.47-2.36-5.55-5.29-9.51-5.3h-.06a16.51,16.51,0,0,0-8.45,2.06,4.11,4.11,0,0,0-.39-.54c-2.81-3.35-5.69-5-8.81-5Z"/><path class="cls-5" d="M187.91,504l-.32,0c-23.87-4-46.43-27.3-49.27-51-3.14-26.18,11.25-58.93,29-66.12a2,2,0,0,1,2.18,3.18c-19.51,20.69-28,40.39-25.32,58.57,2.82,19,17.85,36.36,44.67,51.69a2,2,0,0,1-1,3.69Z"/><path class="cls-2" d="M168.1,388.69C127.46,431.8,133.66,471,187.91,502c-23.58-3.92-44.94-26.88-47.63-49.27-3-25,11-57.27,27.82-64.06m0-3.95a3.81,3.81,0,0,0-1.47.29c-18.51,7.48-33.5,41.25-30.27,68.19,1.42,11.78,7.47,23.79,17,33.82s21.72,16.86,33.86,18.87a3.45,3.45,0,0,0,.64,0,3.94,3.94,0,0,0,2-7.37c-26.27-15-41-31.94-43.7-50.27-2.61-17.55,5.74-36.7,24.8-56.93a3.94,3.94,0,0,0-2.87-6.65Z"/></g><g id="contour-2" data-name="contour"><circle class="cls-7" cx="348.43" cy="203.09" r="201.12" transform="translate(-41.55 305.86) rotate(-45)"/><path class="cls-2" d="M348.43,4c110,0,199.15,89.16,199.15,199.14S458.42,402.24,348.43,402.24,149.29,313.08,149.29,203.09,238.45,4,348.43,4m0-3.95a203.14,203.14,0,0,0-79.05,390.22A203.14,203.14,0,0,0,427.48,16,201.81,201.81,0,0,0,348.43,0Z"/></g><g id="bras_gauche" data-name="bras gauche"><path class="cls-1" d="M85.27,223.05a74,74,0,0,1-19.16-2.38c-9.86-2.61-17.55-9.65-21.64-19.81-2.11-5.23-4.95-19.64-7.23-31.21-1.2-6.1-2.24-11.37-2.93-14.14l-.48-1.92,1.92-.47a78,78,0,0,1,16.39-2.68l1.63-.05.35,1.6c.1.47.56,3.89,1.58,11.59.68,5.17,1.53,11.61,1.65,12.23C62,196,68,202.19,83.24,202.19a81.12,81.12,0,0,0,10.1-.73c8.09-1,16.34-2.34,24.32-3.61,3.73-.59,7.47-1.19,11.24-1.77l1.74-.26.46,1.69c.21.75.42,1.46.63,2.16.46,1.57.89,3.06,1.2,4.61.38,1.87.64,3.72,1,6.07.16,1.13.34,2.37.55,3.78l.29,2-1.95.29c-4.94.73-9.94,1.67-14.78,2.58C107.35,221,96.33,223.05,85.27,223.05Z"/><path class="cls-2" d="M52.2,152.41c.19.9,3,22.91,3.22,23.81,4.66,20.47,11.28,27.94,27.82,27.94a84.07,84.07,0,0,0,10.35-.74c11.83-1.5,23.59-3.55,35.61-5.39.66,2.4,1.37,4.49,1.8,6.64.54,2.7.86,5.46,1.51,9.76-15.84,2.35-31.39,6.64-47.24,6.64a72.4,72.4,0,0,1-18.65-2.31c-9.78-2.59-16.68-9.59-20.32-18.63-3.12-7.74-8-37-10.08-45.1a76,76,0,0,1,16-2.62m3.15-4-3.28.1a80.46,80.46,0,0,0-16.8,2.74l-3.84,1,1,3.84c.68,2.72,1.71,8,2.91,14,2.41,12.26,5.15,26.16,7.33,31.57,4.33,10.75,12.49,18.2,23,21A76,76,0,0,0,85.27,225c11.24,0,22.36-2.09,33.12-4.12,4.82-.9,9.8-1.84,14.7-2.57l3.91-.58-.59-3.91c-.21-1.41-.39-2.64-.55-3.77-.34-2.37-.61-4.25-1-6.18-.33-1.64-.78-3.16-1.25-4.78-.21-.69-.41-1.39-.62-2.13l-.93-3.38-3.47.53c-3.77.58-7.57,1.19-11.24,1.77-8.33,1.33-16.2,2.58-24.27,3.6a79,79,0,0,1-9.85.72c-14.18,0-19.56-5.57-24-24.81-.15-.9-1-7.09-1.63-12.08-1.22-9.28-1.49-11.26-1.6-11.76l-.7-3.21Z"/><path class="cls-3" d="M42.11,166.61l-1.41,0c-7.17-.23-11.71-1.68-14.29-4.56-2-2.22-2.8-5.22-2.48-9.18l.12-1.53,4.13-.71a25.84,25.84,0,0,1-2.68-.47l-.38-.08a23.81,23.81,0,0,1-2.77-.88c-.18-.07-.36-.13-.53-.21a20.31,20.31,0,0,1-2.56-1.25l-.38-.23a21.11,21.11,0,0,1-2.29-1.61l-.19-.14a22.55,22.55,0,0,1-2.11-2.07l-.37-.43a22.25,22.25,0,0,1-1.78-2.4l-.29-.48a28.41,28.41,0,0,1-1.53-2.9c-.71-1.62-1.38-3.29-2.05-5.13-.58-1.61-1.16-3.34-1.77-5.28-.76-2.42-1.5-5-2.18-7.33L3.83,118c-.56-2-1.13-4-1.74-6-.42-1.43.34-2.86,1.16-4.37l.43-.83a2.83,2.83,0,0,1,2.55-1.57A2.87,2.87,0,0,1,8.89,107c.42,1,.73,2,1,2.8a9,9,0,0,0,1.85,3.74c.56.55,1.06,1,1.53,1.43a13.28,13.28,0,0,0,2.07,1.52l.24.12.06,0a6.77,6.77,0,0,0,2.61,1,12.16,12.16,0,0,0,1.33.08,9,9,0,0,0,7.29-3.59l.27-.33.38-.2,1.76-.84.11,0c.7-.32,1.33-.59,2-.83l1.72-.67.78,1.67c.21.44.41.92.61,1.43s.48,1.24.73,1.92c.11.29.21.58.32.88l5.53-1.94h.54a9.85,9.85,0,0,0,6.6-2.37l.29-.24,4-1.41,2,1.11.2.2a8.38,8.38,0,0,0,4.84,2.3l.21,0,.2.08.21.07c.24.08.46.16.68.22l.47.14c.2,0,.4.1.6.13l.41.08c.18,0,.36,0,.54.06h.5l.25,0a3,3,0,0,0,.52,0l.34-.06a3.67,3.67,0,0,0,.55-.14l.41-.13L66,115l.44-.22c.2-.1.4-.22.6-.34l.48-.3.69-.48.12-.09.39-.29c.27-.2.54-.43.81-.65l.53-.44c.33-.27.67-.58,1-.89l.47-.41,1.65-1.54,1.31-1.24,1.35,1.19a18.54,18.54,0,0,1,5,6.79A16,16,0,0,1,82,121.19a18.53,18.53,0,0,1,0,2.68,25.57,25.57,0,0,1-1.17,5.54c-3.63,11.2-11.65,16.15-20.43,19.71h2.44v2c0,.63,0,1.26-.09,1.88,0,.15,0,.3-.07.44l0,.15c-.07.47-.12.84-.19,1.19,0,.18-.09.35-.14.52l-.08.31c-.08.29-.15.58-.24.85s-.14.36-.21.53l-.12.29c-.1.26-.21.52-.33.76a5.45,5.45,0,0,1-.29.53l-.12.23c-.14.24-.27.47-.42.7l-.37.51-.09.11c-.22.29-.38.51-.56.71s-.3.32-.45.48l-.09.09c-.21.22-.42.42-.64.62s-.37.31-.56.46-.53.41-.78.58-.46.3-.69.45l-.8.46c-.24.13-.5.25-.76.37s-.57.27-.86.39L53,165c-.31.11-.62.22-.94.31l-.87.25-1,.25-.93.19-1.07.18-1,.13c-.37,0-.76.08-1.15.12l-1,.08-1.23.05-1.07,0Z"/><path class="cls-2" d="M6.23,107.16a.89.89,0,0,1,.83.56c1.28,3.09,1.51,5.42,3.3,7.19.56.54,1.09,1,1.63,1.51a15.06,15.06,0,0,0,2.38,1.75l.24.12A8.24,8.24,0,0,0,18,119.56a12,12,0,0,0,1.57.1,11,11,0,0,0,8.82-4.32h0l1.68-.8.19-.09c.59-.26,1.18-.52,1.78-.75.19.4.37.84.56,1.32,1.31,3.3,2.64,8,5.64,11.06,3.46,3.54,8.86,6,13.81,7.05.63.13,1.27.22,1.92.29l.61,0c.44,0,.88.07,1.33.07h0c.89,0,1.79-.07,2.7-.16l.68-.09c.89-.11,1.78-.26,2.68-.45h0c.93-.2,1.87-.44,2.82-.7l.7-.2c.92-.26,1.85-.54,2.77-.85-12-.66-24.32.51-31-12.51l4-1.4h.16a11.82,11.82,0,0,0,7.94-2.84l2.84-1,1,.55a10.38,10.38,0,0,0,6,2.86l.25.08c.26.09.51.18.76.25l.54.16.71.16c.17,0,.34.07.51.09a5.23,5.23,0,0,0,.68.07,3.59,3.59,0,0,0,.47,0h.16l.36,0,.71-.06.51-.1c.22-.05.45-.1.68-.17l.52-.18c.22-.08.45-.18.67-.28l.54-.26c.23-.12.47-.26.7-.4l.55-.34.76-.54c.18-.13.37-.26.56-.41l.85-.69.56-.45c.34-.29.7-.61,1-.93.16-.14.32-.27.48-.43.54-.48,1.1-1,1.69-1.56A16.45,16.45,0,0,1,79,116.79a13.89,13.89,0,0,1,1,4.51,16.12,16.12,0,0,1,0,2.4,23.18,23.18,0,0,1-1.08,5.1c-4.72,14.56-17.06,17.72-29.69,22.29h11.6a15.53,15.53,0,0,1-.09,1.69c0,.18,0,.35-.08.53-.05.35-.09.7-.16,1s-.11.39-.16.59-.15.59-.24.87-.16.39-.24.59-.2.51-.32.76-.21.37-.31.56-.25.45-.4.67-.25.35-.38.53-.31.4-.47.59-.31.32-.46.48-.36.36-.55.53l-.53.44-.62.46-.6.38c-.23.14-.46.28-.7.41l-.67.33-.77.34-.74.28-.85.29-.8.23-.92.22c-.28.07-.57.13-.86.18l-1,.17c-.3,0-.6.09-.91.12s-.72.08-1.09.11l-1,.08-1.17.05-1,0h-.63c-.45,0-.89,0-1.36,0C29.59,164.26,25.27,161,25.89,153l10.67-1.82c.21-.88.41-1.77.62-2.65h0c-.8.11-1.58.19-2.35.25l-.74,0c-.54,0-1.06.05-1.59.06H31.8c-1,0-2-.05-2.9-.15l-.33-.05c-.9-.11-1.78-.26-2.63-.45l-.35-.08a21.27,21.27,0,0,1-2.53-.8l-.49-.19A19.13,19.13,0,0,1,20.25,146l-.34-.21a18.53,18.53,0,0,1-2.08-1.46l-.16-.13a17.7,17.7,0,0,1-1.91-1.87l-.34-.38a21.39,21.39,0,0,1-1.62-2.19c-.09-.15-.17-.3-.26-.44a22.58,22.58,0,0,1-1.41-2.68h0c-.72-1.64-1.38-3.3-2-5s-1.2-3.43-1.75-5.2c-.74-2.35-1.44-4.78-2.16-7.29S4.77,114.08,4,111.41c-.24-.84.77-2.38,1.46-3.76a.88.88,0,0,1,.79-.49m0-4h0a4.78,4.78,0,0,0-4.31,2.67l-.41.77c-.88,1.63-2,3.66-1.31,5.87s1.18,4.08,1.74,6l.49,1.7c.79,2.77,1.46,5.09,2.19,7.39.61,2,1.2,3.72,1.8,5.36.67,1.84,1.35,3.53,2.06,5.16l.07.17,0,.09a25.09,25.09,0,0,0,1.57,2.95l.07.12.24.4a22.67,22.67,0,0,0,1.93,2.62l.34.38.07.09a23.18,23.18,0,0,0,2.32,2.26l.25.2a22,22,0,0,0,2.47,1.73l.06,0,.36.21a21.94,21.94,0,0,0,2.79,1.37l.58.23.43.16-.12,1.5c-.36,4.53.62,8,3,10.65,3,3.36,7.85,5,15.7,5.22l1.48,0h.66l1.08,0,1.32-.05,1.07-.09c.41,0,.82-.07,1.21-.12l1-.14,1.15-.19q.49-.09,1-.21l1.08-.26,1-.27,1-.34.9-.35c.33-.13.64-.28,1-.42l.84-.42c.31-.17.6-.34.89-.52s.54-.33.79-.5l.82-.61L59,164c.22-.17.44-.35.65-.54s.52-.49.71-.68l.1-.1c.19-.19.38-.38.55-.58s.44-.54.6-.75l0-.07.07-.1c.16-.2.31-.41.45-.62a8.34,8.34,0,0,0,.49-.82l.06-.1.07-.12c.12-.21.24-.42.35-.64s.29-.65.39-.91l0-.11.06-.13c.09-.22.17-.43.25-.66s.22-.72.29-1l0-.14,0-.12c.06-.22.12-.43.17-.65.09-.45.15-.86.2-1.23v-.1l0-.09c0-.19.06-.38.08-.58.07-.67.1-1.37.11-2.06v-1.76c7.74-3.64,14.53-8.93,17.89-19.33a26.56,26.56,0,0,0,1.26-6,19.75,19.75,0,0,0,0-3,17.83,17.83,0,0,0-1.3-5.77,20.44,20.44,0,0,0-5.53-7.53l-2.71-2.38-2.61,2.48c-.57.53-1.11,1-1.63,1.51l-.24.2-.22.2c-.33.3-.66.59-1,.86l-.29.25-.21.17c-.26.21-.51.42-.76.61l-.33.24L67,112l-.62.43-.4.26-.51.29-.35.17-.4.17-.29.1-.34.08-.26,0a1.83,1.83,0,0,1-.33,0l-.24,0H63l-.39,0-.32-.06-.47-.11-.4-.11c-.19-.06-.39-.12-.59-.2l-.24-.08-.35-.13-.41-.06A6.4,6.4,0,0,1,56.12,111l-.41-.4-.49-.27-.32-.17-.68-.37L52.68,109l-1.67.58-2.83,1-.71.25-.57.49a7.91,7.91,0,0,1-5.27,1.89h-.91l-.65.23-1.38.49-2,.69-.39-1c-.24-.59-.45-1.09-.66-1.54l-1.57-3.34L30.64,110c-.6.23-1.23.5-2,.84l-.06,0-.15.07c-.59.28-1.19.56-1.77.85l-.79.39-.56.69a7.1,7.1,0,0,1-5.75,2.84,10.23,10.23,0,0,1-1.09-.06,4.77,4.77,0,0,1-1.82-.71l-.1-.07-.1-.05-.21-.11a12.39,12.39,0,0,1-1.7-1.26c-.42-.38-.9-.82-1.43-1.35a7.6,7.6,0,0,1-1.37-3c-.28-.86-.61-1.84-1.06-2.93a4.83,4.83,0,0,0-4.48-3Z"/><path class="cls-3" d="M19.58,117.69a11.83,11.83,0,0,1-1.32-.08c-4.54-.56-8.8-7.3-10.25-11.68-.22-.68-.43-1.38-.61-2.09a35.57,35.57,0,0,1-.8-4.35A39,39,0,0,1,6.34,95,35.07,35.07,0,0,1,7,88.48a23.15,23.15,0,0,1,1-3.74A25.17,25.17,0,0,1,9.71,81c1.09-1.92,2.92-4.46,5.44-5.64a6.58,6.58,0,0,1,1.74-.51l.47,0h.1c.25,0,.5,0,.76,0l.47,0,.61,0c.41.05.83.11,1.26.19l.14,0,.38.07c.57.13,1.15.27,1.76.45l.15,0,1.79.55,2.37.75,1.36.41.66.19,1.08.29.72-.63c2-1.75,4.91-4.39,8.47-5.12a8.27,8.27,0,0,1,1.76-.18c.15,0,.26,0,.38,0a13,13,0,0,1,1.35.12l.46.09.15,0c.35.07.69.14,1.05.24l.61.17,1,.33.7.25c.34.11,1.36.49,1.36.49l1.76.66,1.1.4.62.22.92.3c.64-.34,1.31-.68,2-1l.58-.26.24-.1c.67-.29,1.28-.53,1.86-.74l.88-.29c.59-.19,1.19-.34,1.82-.48l.19,0,.52-.11A14,14,0,0,1,63.21,72h0a12.36,12.36,0,0,1,1.73.12l.35.06a11.68,11.68,0,0,1,1.5.38l.29.1a9.33,9.33,0,0,1,1.53.74l.27.17a10.18,10.18,0,0,1,1.2.92c.13.1.2.17.28.24A12.26,12.26,0,0,1,71.53,76l.18.26a13.27,13.27,0,0,1,.85,1.36l.21.38a15.58,15.58,0,0,1,.79,1.78l.09.25c.22.62.39,1.2.56,1.8l.13.53c.19.77.34,1.5.46,2.23l0,.19c.11.78.2,1.52.28,2.29l.06.67c.08,1,.12,1.86.14,2.71A44.63,44.63,0,0,1,71.7,109a6.06,6.06,0,0,1-.89,1.4,3.73,3.73,0,0,1-.34.35l-.08.09a10,10,0,0,1-.74.7,4.56,4.56,0,0,1-.42.31l-.12.09c-.32.23-.55.4-.81.56l-.49.28-.14.08c-.28.16-.57.32-.87.46s-.38.17-.57.25l-.11,0c-.3.13-.59.25-.9.36l-.68.22c-.34.11-.64.19-.94.27l-.73.15c-.31.06-.61.11-.9.14l-.72.06H60.08l-.15,0a8.32,8.32,0,0,1-6-3.22A9.72,9.72,0,0,1,52.2,106c-.16.56-.34,1.12-.55,1.67l-.08.21a17.81,17.81,0,0,1-.81,1.71l-.13.24a12.47,12.47,0,0,1-1,1.53l-.19.23a10.88,10.88,0,0,1-1.32,1.31l-.2.16a10.34,10.34,0,0,1-1.66,1l-.2.09a9.69,9.69,0,0,1-2,.68l-.23,0a12.25,12.25,0,0,1-2.24.23h0c-.3,0-.59,0-.88,0l-.42,0a9.71,9.71,0,0,1-4.82-1.64,7.54,7.54,0,0,1-1.65-1.59,11.63,11.63,0,0,1-2.12-5.94c-.08-.62-.14-1.29-.18-2.06s-.06-1.35-.08-2c0-1.23-.1-2.46-.18-3.68,0-.67-.09-1.34-.14-2-.26,2.85-.53,5.69-.81,8.54q-.06.6-.15,1.2l-.06.39c0,.27-.09.54-.14.81l-.11.46c-.06.3-.11.51-.16.72s-.14.49-.14.49c-.06.22-.13.44-.2.66s-.09.28-.14.42-.18.49-.26.7-.12.3-.19.45-.19.44-.28.63l-.24.47-.31.56-.28.46s-.31.46-.37.53-.2.28-.31.42-.27.33-.41.48l-.35.39-.47.44-.4.35-.53.38-.44.3c-.18.11-.37.21-.57.31l-.1,0-.39.19c-.2.09-.42.16-.63.24l-.11,0-.41.13c-.23.07-.46.11-.7.16l-.13,0-.4.08c-.29,0-.6.05-.91.07l-.39,0Z"/><path class="cls-2" d="M41.19,73.87h0l.28,0a8.63,8.63,0,0,1,1.12.1l.53.11c.31.06.62.12.93.21l.62.17.92.29.67.23,1,.36,1,.37,1.12.42,1.13.41.64.23c.59.2,1.18.39,1.79.56.9-.52,1.78-1,2.63-1.36.26-.13.51-.23.77-.34.59-.26,1.17-.49,1.73-.69q.41-.15.81-.27c.56-.18,1.1-.31,1.64-.43l.63-.14a12.65,12.65,0,0,1,2.07-.19h0a10.63,10.63,0,0,1,1.41.1l.35.07a8.65,8.65,0,0,1,1.14.29l.23.07a7.63,7.63,0,0,1,1.22.59,2.4,2.4,0,0,1,.26.18,7.36,7.36,0,0,1,.92.69l.22.2a9,9,0,0,1,1,1.07l.18.26a10,10,0,0,1,.69,1.11,3.72,3.72,0,0,1,.19.34c.25.49.48,1,.7,1.57,0,.09.06.2.1.3q.25.74.48,1.56c0,.16.09.32.13.49.16.66.3,1.34.42,2.08a2.4,2.4,0,0,0,0,.24c.1.67.18,1.38.25,2.11l.06.64c.07.84.12,1.69.14,2.6a42.75,42.75,0,0,1-3.45,17.74,4.43,4.43,0,0,1-.6.93c-.08.1-.2.2-.3.3a6.64,6.64,0,0,1-.6.58l-.45.33c-.22.16-.44.33-.69.48s-.36.21-.54.31l-.76.4c-.2.1-.4.18-.61.27s-.52.22-.79.31-.42.14-.63.21-.53.16-.79.22l-.63.14-.76.11c-.2,0-.39,0-.58.05h-.42a3.1,3.1,0,0,1-.43,0h-.16c-4.88-.54-6.75-4.47-5.7-10.07.15-.74.26-1.49.36-2.23a67.14,67.14,0,0,0,.5-6.82c.09-3.06.08-6.13.23-9.17l-3.18-.26c-.16,2.46-.3,4.91-.5,7.36-.32,3.88-.4,7.8-1.07,11.62a18.2,18.2,0,0,1-.41,1.87l0,.14A17.18,17.18,0,0,1,49.8,107a1.59,1.59,0,0,1-.07.2,14.35,14.35,0,0,1-.7,1.48l-.11.21a10.71,10.71,0,0,1-.88,1.28l-.15.19a8.93,8.93,0,0,1-1.07,1.06l-.18.14a7.78,7.78,0,0,1-1.29.81l-.2.09a7.54,7.54,0,0,1-1.54.52l-.19,0a9.84,9.84,0,0,1-1.85.18h0l-.76,0h-.34a7.73,7.73,0,0,1-3.86-1.29,5.76,5.76,0,0,1-1.23-1.18,10.08,10.08,0,0,1-1.73-5c-.07-.64-.12-1.29-.16-1.94s-.06-1.32-.08-2q-.06-1.87-.18-3.75c-.23-3.74-.61-7.48-.88-11.23L30,86.9c-.55,5.86-1.06,11.72-1.64,17.57,0,.37-.08.75-.14,1.12l-.06.35c0,.25-.08.5-.13.74l-.09.43c-.05.22-.1.43-.16.65s-.08.29-.12.44-.11.4-.18.6-.1.29-.15.44-.13.37-.2.56l-.18.42-.24.53-.21.4a4.67,4.67,0,0,1-.27.49c-.07.13-.15.25-.23.38l-.14.2-.16.24-.27.35-.33.41-.3.31c-.12.12-.24.24-.37.35s-.21.19-.32.28-.27.2-.41.3l-.35.23a5,5,0,0,1-.46.25l-.36.18a5.27,5.27,0,0,1-.51.19,2.84,2.84,0,0,1-.38.13,5.61,5.61,0,0,1-.59.13l-.37.07c-.24,0-.49,0-.73,0l-.31,0h0a10.09,10.09,0,0,1-1.09-.06c-3.35-.41-7.26-6.22-8.62-10.34-.21-.64-.4-1.29-.57-2a33.74,33.74,0,0,1-.75-4.1,34.55,34.55,0,0,1,.32-10.4,22.32,22.32,0,0,1,1-3.43A22.54,22.54,0,0,1,11.43,82,11.37,11.37,0,0,1,16,77.18h0a4.7,4.7,0,0,1,1.21-.34l.42,0,.61,0h.35l.52,0c.35,0,.71.1,1.08.17l.47.09q.8.17,1.65.42l.19.05,1.69.52,1.49.47.89.29,1.39.41.7.21c.68.19,1.37.37,2.08.53,1.65-1.17,5.06-5.14,9.11-6a6.72,6.72,0,0,1,1.35-.13m0-4a10.74,10.74,0,0,0-2.15.21c-4,.84-7.19,3.63-9.31,5.51h0l-.48-.14-.17,0-1.32-.4-.14,0-.73-.23-1.49-.48-1.79-.55-.2-.06c-.63-.18-1.27-.34-1.89-.48L21,73.12l-.11,0c-.5-.09-1-.16-1.42-.21-.24,0-.49,0-.72,0l-.56,0c-.31,0-.62,0-.94,0h-.06c-.22,0-.43,0-.64.06a8.61,8.61,0,0,0-1.88.5l-.05,0-.32.14C11.32,75,9.23,77.88,8,80.05a27.18,27.18,0,0,0-1.85,4,25,25,0,0,0-1.14,4A37.34,37.34,0,0,0,4.37,95a40.58,40.58,0,0,0,.27,4.69,37.41,37.41,0,0,0,.85,4.6c.19.76.41,1.5.65,2.22,1.29,3.94,5.91,12.3,11.88,13a11.82,11.82,0,0,0,1.57.1,4.11,4.11,0,0,0,.53,0,9.32,9.32,0,0,0,1.06-.08,5.12,5.12,0,0,0,.54-.1l.09,0a7.35,7.35,0,0,0,.86-.19l.54-.17.06,0,.05,0c.25-.09.51-.18.76-.29l.52-.25.06,0c.24-.13.49-.26.72-.4a5.25,5.25,0,0,0,.49-.33l.05,0c.21-.15.43-.3.63-.46l.49-.42c.19-.17.37-.34.55-.53s.29-.3.43-.46.33-.38.48-.58.25-.32.37-.49a2,2,0,0,0,.19-.28l0,0,.19-.28.32-.51c.12-.21.24-.43.35-.65a5.28,5.28,0,0,0,.27-.53c.11-.22.21-.45.31-.67l0-.06.21-.49.15-.4a10.49,10.49,0,0,0,1.32,2.23,9.71,9.71,0,0,0,2.06,2,11.74,11.74,0,0,0,5.79,2l.46,0c.34,0,.68,0,1,0a13.18,13.18,0,0,0,2.6-.26,1.65,1.65,0,0,0,.32-.06,11,11,0,0,0,2.31-.78l.31-.14a11.26,11.26,0,0,0,2-1.23l.29-.22a12.17,12.17,0,0,0,1.57-1.56l.22-.27c.2-.26.4-.52.59-.8a9.08,9.08,0,0,0,.63,1,10.23,10.23,0,0,0,7.36,4l.22,0h.27l.54,0,.6,0a8.34,8.34,0,0,0,.85-.07c.34,0,.69-.09,1.05-.16l.83-.17,1-.29.8-.26,1-.4.11,0,.66-.29,1-.5.14-.08c.2-.11.4-.22.59-.34.35-.22.64-.43.87-.6l.06,0,.1-.06c.18-.14.37-.27.54-.41a11.3,11.3,0,0,0,.9-.86h0a5,5,0,0,0,.53-.56,8,8,0,0,0,1.17-1.86,44.71,44.71,0,0,0,2.93-9.5,46.06,46.06,0,0,0,.86-9.92c0-.88-.08-1.78-.16-2.81l-.06-.7c-.08-.86-.17-1.63-.29-2.34,0-.11,0-.2,0-.29-.13-.77-.29-1.54-.49-2.36l-.12-.49,0-.09c-.17-.66-.37-1.29-.57-1.87l-.13-.37a19.28,19.28,0,0,0-.88-2c-.06-.12-.13-.24-.2-.36l0-.08a14.54,14.54,0,0,0-.94-1.49,2.8,2.8,0,0,0-.26-.36,11.94,11.94,0,0,0-1.37-1.54c-.1-.1-.21-.19-.32-.28A11.51,11.51,0,0,0,70,71.92l0,0-.36-.24a11.58,11.58,0,0,0-1.85-.89l-.4-.13a10.64,10.64,0,0,0-1.64-.42l-.07,0-.44-.07a13.37,13.37,0,0,0-2-.15h0a16.82,16.82,0,0,0-2.71.26c-.21,0-.42.08-.64.13l-.15,0c-.7.15-1.35.32-2,.52l-1,.32c-.63.22-1.28.48-2,.79l-.22.1c-.22.09-.43.18-.65.29-.47.22-.92.44-1.36.67l-.1,0-.38-.13-.22-.08-.07,0-1-.35L49.66,72l-.74-.27-.26-.1-1-.38L46.88,71c-.35-.12-.7-.22-1.05-.33l-.73-.21c-.42-.11-.81-.19-1.17-.26l-.12,0-.58-.11A13,13,0,0,0,41.74,70l-.5,0h-.05Z"/></g><g id="tete"><circle class="cls-1" cx="348.43" cy="202.59" r="162.15" transform="translate(-41.2 305.71) rotate(-45)"/><path class="cls-2" d="M348.43,42.41A160.18,160.18,0,1,1,188.25,202.59,160.18,160.18,0,0,1,348.43,42.41m0-3.94a164.12,164.12,0,0,0-116,280.17,164.12,164.12,0,1,0,232.1-232.1,163,163,0,0,0-116-48.07Z"/></g><g id="sous_visage" data-name="sous visage"><path class="cls-8" d="M371.09,319.33H369.8l-1.48,0c-.81,0-1.62,0-2.44-.06l-1-.06-2.38-.14c-.81-.06-1.61-.13-2.41-.21l-.37,0-.91-.11-1.19-.14-2.52-.3-.53-.08c-.47-.06-.94-.12-1.41-.2l-.24,0c-1.51-.24-3-.52-4.29-.78l-.31-.06-.51-.09-.6-.12-.95-.19-.23-.05c-1.67-.37-3.27-.78-4.64-1.13l-.57-.14c-.27-.06-.54-.12-.81-.2l-.6-.15c-2.54-.7-4.82-1.39-7-2.11-1.59-.54-3.24-1.13-4.9-1.76a118.34,118.34,0,0,1-37.21-22.33c-1.43-1.29-2.66-2.48-3.78-3.62l-.24-.23c-11.91-12.23-23.86-31.85-22.63-41.54a7.74,7.74,0,0,1,1.74-4.19l.17-.19.18-.13.17-.13a7.39,7.39,0,0,1,.86-.7L267,238l.5-.28.15-.08.07,0a8.46,8.46,0,0,1,1.26-.47l.26-.1.11,0a4,4,0,0,1,.54-.09c.43-.08.91-.15,1.39-.19l.23,0,.54,0h.42l1.14,0h.73l.1,0c.48.05,1,.12,1.47.19l.4.06c.17,0,.66.12.66.12l1.51.3.74.18,1.56.4.67.19c.73.21,1.46.43,2.21.67s1.57.53,2.34.81l.71.26,1.63.62.8.31,1.62.65.69.29c.75.31,1.5.63,2.24,1,1.39.57,2.87,1.16,4.37,1.74l1.38.52c1.12.42,2.25.83,3.41,1.24l.89.32.64.21c1.38.48,2.81.94,4.26,1.4l.7.22c1.33.41,2.77.83,4.68,1.35l1,.29.92.23c1.31.34,2.63.67,4,1l.65.16.57.13.52.11c1.62.36,3.28.69,4.95,1l.73.14c1.82.33,3.76.64,5.75.91l.35.06.57.07.52,0c1.64.21,3.13.38,4.56.51l.5.06.92.08.44,0c2.21.18,4.24.3,6.22.37h.13c1.37,0,2.69.07,4,.07l2.68,0h.23l.77,0,.66,0,.71,0,.92,0c1.2-.06,2.39-.11,3.59-.2l.51,0,1.11-.08.33,0c2.63-.24,4.82-.49,6.9-.79,1.47-.22,3-.48,4.83-.82l.82-.15c1.46-.28,2.94-.59,4.4-.93l.86-.2c1.56-.37,3-.72,4.25-1.07l.3-.09c1.34-.36,2.65-.74,3.94-1.13l.65-.2c1.28-.4,2.54-.8,3.76-1.21l.78-.27c1.21-.41,2.4-.83,3.56-1.25l.47-.17,3.22-1.2.51-.19,3.21-1.25,3.87-1.53,2.94-1.15.27-.11c.93-.36,1.83-.7,2.72-1l.5-.19c.89-.32,1.74-.61,2.56-.88l2.25-.68.59-.17.11,0,.49-.11.24-.05c.41-.1.82-.2,1.23-.28l.49-.1.29-.06.24,0c.59-.1,1.19-.17,1.74-.22l.16,0,.37,0h2.37l.12,0,.55.08.18,0-.17,2,.27-1.95.29,0,.16,0,.39.1.34.1-.51,1.91.65-1.87.46.15.17.05.53.21.31.16.41.2.27.14a4.56,4.56,0,0,1,.43.25l.08,0,.07.06.38.27.25.19a4.7,4.7,0,0,1,.52.39c3.95,3.41,5.88,9.94,5.41,18.38-.57,10.44-4.72,22.6-11.1,32.52-1,1.52-2,3-3,4.36a60.6,60.6,0,0,1-7,7.74c-8.07,7.47-18.33,12.55-30.51,15.08l-1.85.38v0l-1.17.19v0l-1.52.23-.1.1h-.6c-.7.1-1.41.17-2.12.24l-1,.09-.83.1c-.55.06-1.09.12-1.65.16l-.18,0-1.29.06-.71,0c-.37,0-.75.05-1.13.06l-.65,0c-.65,0-1.3.06-2,.07Z"/><path class="cls-2" d="M272.07,238.63h.34l1,0c.19,0,.36,0,.56,0h.05c.53,0,1.09.13,1.65.21h0a2,2,0,0,1,.24,0l.61.11.67.13.15,0,.19,0,.42.09.71.16.49.13.17,0,.83.22.65.18c.71.2,1.42.42,2.15.66h0c.74.24,1.49.5,2.24.78l.71.25,1.59.6.78.31,1.59.65.68.28c.75.31,1.49.62,2.22.94,1.44.6,2.93,1.19,4.45,1.78l1.4.52c1.13.43,2.28.84,3.44,1.26.31.1.6.22.91.33h0l.59.19c1.41.49,2.85,1,4.32,1.42l.71.23q2.32.71,4.73,1.37l.47.13.46.13h0l1,.25c1.33.35,2.67.68,4,1l.66.16.58.14.52.1q2.47.56,5,1l.74.15c1.92.35,3.86.65,5.83.93l.36.06h.09l1,.11c1.53.19,3.07.37,4.62.52l.51.05.94.08.45,0c2.08.17,4.17.3,6.3.37h.2q2,.06,4,.06l2.72,0h.31l.71,0,.67,0c.44,0,.89-.05,1.34-.07,1.31-.06,2.63-.11,4-.21l.5,0,1.14-.09.34,0c2.32-.2,4.64-.45,7-.8,1.68-.25,3.31-.53,4.92-.83l.83-.15c1.52-.3,3-.61,4.46-.95l.87-.2c1.46-.35,2.91-.71,4.31-1.09l.31-.08c1.36-.38,2.69-.76,4-1.16l.66-.19,3.81-1.23.78-.27c1.23-.42,2.44-.84,3.61-1.26l.47-.18c1.11-.4,2.19-.8,3.24-1.21l.52-.19c1.11-.43,2.18-.84,3.23-1.26l.9-.35,3-1.17c1-.4,2-.79,2.93-1.15l.26-.1c.93-.36,1.82-.7,2.7-1l.5-.18c.86-.31,1.69-.6,2.5-.87l.39-.12.6-.18.45-.14.4-.11.89-.27.1,0,.69-.15,1.16-.27.34-.07.39-.07.2,0c.55-.09,1.09-.16,1.61-.2l.17,0h2.32c.26,0,.52.08.77.12h.09l.23,0,.13,0,.39.1.25.08.08,0,.38.12.15,0,.41.16.13.07.07,0,.39.2.21.1.35.2.08.06.44.32c.19.14.37.25.55.4,3.62,3.12,5.14,9.3,4.73,16.79-.52,9.61-4.24,21.37-10.79,31.56-.92,1.44-1.91,2.86-3,4.23a59.15,59.15,0,0,1-6.74,7.48c-8.13,7.54-18.34,12.26-29.57,14.6v0c-1.67.35-3.36.63-5.06.87h0c-1,.15-2.07.22-3.1.33-.81.09-1.6.2-2.42.26h-.22c-.63.05-1.28.06-1.91.09l-1.12.06c-.85,0-1.69.08-2.55.1h-.74l-1.83,0h-.72c-.86,0-1.72,0-2.58-.06l-1.48-.09-1.32-.08-.54,0-2.36-.2-.37-.05c-.47,0-.94-.11-1.41-.16-1.05-.12-2.09-.23-3.13-.38-.64-.09-1.27-.17-1.9-.27l-.33-.06c-1.37-.22-2.75-.48-4.13-.75l-.81-.14-1.53-.31-.28-.06c-1.51-.33-3-.71-4.51-1.1-.45-.12-.91-.21-1.36-.33l-.59-.15c-2.31-.64-4.6-1.32-6.88-2.08q-2.43-.82-4.83-1.74a116.14,116.14,0,0,1-36.58-21.94q-1.92-1.73-3.71-3.54l-.22-.22c-11.85-12.17-23.21-31.08-22.1-39.92a5.73,5.73,0,0,1,1.28-3.14.54.54,0,0,1,.12-.09c.05-.06.13-.1.19-.16a4.25,4.25,0,0,1,.78-.62l0,0,.33-.19.07,0a6.41,6.41,0,0,1,1.14-.43c.08,0,.15-.07.24-.09h0c.11,0,.25,0,.37,0a11.5,11.5,0,0,1,1.25-.16l.14,0,.48,0h0m0-3.95H272l-.61,0-.33,0c-.48,0-1,.11-1.44.19a5.1,5.1,0,0,0-.67.12l-.21,0-.09,0-.33.11a11.39,11.39,0,0,0-1.41.54l-.3.14-.57.31-.34.21-.09.08a8.49,8.49,0,0,0-.91.74l-.16.12a4.65,4.65,0,0,0-.58.55,9.64,9.64,0,0,0-2.22,5.25c-1.34,10.58,11,30.65,23.18,43.16.07.08.15.15.22.22,1.16,1.18,2.42,2.39,3.88,3.71A120.19,120.19,0,0,0,326.81,313c1.68.64,3.35,1.24,5,1.79,2.2.73,4.51,1.44,7.08,2.14l.43.11.18.05c.29.08.59.14.88.21l.52.13c1.48.38,3.05.78,4.66,1.13l.29.07,1,.2.58.11.55.1.29.06c1.35.26,2.8.54,4.26.77l.34.06c.47.08.95.14,1.43.21l.53.07c.89.12,1.75.22,2.59.31l.64.08.51.06,1,.11h.06l.32,0,2.45.2.36,0,.2,0,.89,0,.46,0,.48,0c.36,0,.71.05,1.07.06.81,0,1.62.05,2.43.07h3.67c.67,0,1.34,0,2-.07l.66,0c.39,0,.77,0,1.16-.06l.69,0,1.26-.06.28,0c.58,0,1.16-.11,1.73-.18l.79-.08,1-.1c.74-.07,1.49-.14,2.27-.25l1.53-.22,0,.09,1.43-.29,1.3-.19,0-.08,1-.22c12.54-2.61,23.12-7.84,31.45-15.57a62.27,62.27,0,0,0,7.2-8c1.08-1.42,2.13-2.93,3.13-4.49,6.56-10.2,10.82-22.72,11.41-33.48.5-9.07-1.66-16.17-6.09-20a7.7,7.7,0,0,0-.69-.52l-.09-.06-.09-.07-.42-.31-.25-.16a4.25,4.25,0,0,0-.46-.27l-.06,0-.34-.18-.45-.23-.07,0-.3-.14c-.22-.1-.42-.18-.62-.25l-.31-.1c-.15-.06-.31-.1-.47-.15l-.1,0,.06,0-.42-.13-.07,0-.48-.12-.31-.05-.29,0h-.05l-.13,0c-.21,0-.46-.08-.75-.11l-.12,0-.23,0h-2.44l-.35,0-.3,0c-.56.05-1.14.13-1.74.22l-.32.05-.34.06-.1,0-.37.08-1.34.3-.17,0-.59.14-.15,0-.63.19-.3.09-.27.08-.15,0-.11,0-.39.12-.19.06-.45.13-.14,0-.28.09c-.8.27-1.65.56-2.6.91l-.52.18c-.9.33-1.81.68-2.76,1.05l-.15.05-.11,0-3,1.16-.73.29-2.23.88-.55.21-.35.14L401.34,243l-.27.1-.24.1-3.19,1.19-.24.08-.23.09c-1.09.39-2.27.81-3.53,1.24l-.76.26-3.73,1.2-.35.1-.28.09c-1.38.41-2.65.78-3.89,1.12l-.19.05-.11,0c-1.27.35-2.64.69-4.19,1.06l-.22.05-.62.15c-1.44.33-2.9.64-4.33.91l-.49.1-.32.05c-1.79.34-3.3.59-4.76.81-2,.29-4.19.54-6.78.77l-.32,0-.72.06-.39,0h-.12l-.37,0c-1.19.09-2.36.14-3.6.2h-.25l-.66,0-.63,0-.45,0-.2,0h-1c-.89,0-1.77,0-2.65,0-1.32,0-2.63,0-3.89-.06h-.15c-2-.07-4-.19-6.16-.36l-.36,0h-.09l-.91-.08h-.13l-.36,0c-1.39-.13-2.86-.3-4.49-.5l-.58-.07-.41,0h-.14l-.29-.05c-1.95-.27-3.86-.57-5.67-.9l-.56-.11-.11,0h-.05c-1.64-.31-3.29-.64-4.88-1l-.36-.07-.15,0-.37-.09-.2,0-.24-.06-.41-.1c-1.24-.29-2.52-.61-3.92-1l-.55-.13-.43-.11h-.06l-.09,0L315,248l-.16,0-.3-.09c-1.88-.52-3.3-.93-4.61-1.33l-.34-.11-.35-.11c-1.42-.45-2.84-.91-4.23-1.39l-.37-.12-.21-.07-.44-.16-.48-.17c-1.14-.41-2.28-.82-3.37-1.23l-.42-.16-.95-.36c-1.62-.62-3-1.18-4.32-1.72l-2.24-.95-.46-.19-.24-.1-1.65-.67-.8-.31-1.66-.63-.22-.08-.51-.19c-.88-.31-1.65-.58-2.36-.81h-.07c-.71-.24-1.45-.46-2.24-.69l-.48-.13-.21-.06-.69-.18-.22-.06h-.05l-.13,0-.16-.05-.37-.09-.78-.18-.35-.07-.11,0-.21,0-.14,0-.21,0-.56-.11-.18,0-.51-.09-.26,0h-.1c-.52-.08-1.11-.16-1.69-.22h-.13l-.18,0h-.59c-.43,0-.84,0-1.23,0h-.34Z"/><path class="cls-5" d="M277.39,217.05a54.49,54.49,0,1,1,0-109,54.49,54.49,0,0,1,0,109Z"/><path class="cls-2" d="M277.39,110a52.52,52.52,0,1,1-43.73,23.43A52.53,52.53,0,0,1,277.39,110m0-4a56.48,56.48,0,1,0,14.8,2,56.4,56.4,0,0,0-14.8-2Z"/><path class="cls-5" d="M425.13,219.56a54.47,54.47,0,1,1,14.28-1.9A54.76,54.76,0,0,1,425.13,219.56Z"/><path class="cls-2" d="M425.13,112.55A52.53,52.53,0,1,1,381.4,136a52.59,52.59,0,0,1,43.73-23.44m0-3.94a56.44,56.44,0,1,0,14.8,2,56.37,56.37,0,0,0-14.8-2Z"/></g><path class="cls-2" d="M255.39,258.22c-2.82-6.17-4.46-12.19-3.83-17.16a13.44,13.44,0,0,1,3.16-7.35,7.93,7.93,0,0,1,1.07-1l.11-.09a11.6,11.6,0,0,1,1.85-1.38,9.13,9.13,0,0,1,.82-.45l.58-.29.18-.06a12.64,12.64,0,0,1,1.45-.54h0l.27-.1.28-.1.42-.1a8.87,8.87,0,0,1,1-.18c.37-.07.74-.12,1.13-.16l.43-.05h.11l.21,0h.2l.77,0c.15,0,.31,0,.47,0,.47,0,.95,0,1.44,0h.62l.32,0,.17,0h.09c.61.06,1.19.14,1.71.22h.08l.14,0,.33,0,.61.11.16,0,.62.12h0l.18,0h0l.79-4.87-.82-.16-.76-.14-.74-.11c-.57-.08-1.19-.16-1.71-.21l-1.28-.1h-.4c-.55,0-1.07,0-1.43,0s-.5,0-.75,0l-1.15,0-1,.1c-.44,0-.87.12-1.29.19a13.28,13.28,0,0,0-1.45.26l-1.37.41c-.56.18-1.11.38-1.64.6l-1.28.58c-.39.2-.76.4-1.11.62a15.76,15.76,0,0,0-2.48,1.83,12.21,12.21,0,0,0-1.73,1.64,18.38,18.38,0,0,0-4.35,10c-.81,6.47,1.39,13.93,4.89,21.17C252.87,260.52,254.14,259.39,255.39,258.22Z"/><g id="bouche"><path class="cls-8" d="M433.54,241.08c-.18-.15-.36-.27-.55-.4l-.44-.32-.08-.06-.35-.2-.21-.1-.39-.2-.07,0-.13-.07-.41-.17-.15,0-.38-.12-.08,0-.25-.08-.39-.1-.13,0-.23,0h-.09a6.5,6.5,0,0,0-.77-.12h-.09c-.12,0-.25,0-.37,0s-.48,0-.72,0h-.58a1.61,1.61,0,0,1-.22,0l-.34,0-.17,0c-.52,0-1.06.12-1.61.21l-.2,0-.39.08-.34.07-1.16.27-.69.15-.1,0c-.29.07-.6.18-.89.26l-.4.12-.45.14c-.21.06-.4.11-.6.18l-.39.12c-.81.26-1.64.55-2.5.86l-.5.19c-.88.32-1.77.65-2.7,1l-.26.1L409.84,244l-3,1.18-.9.35-3.23,1.25-.52.2c-1.05.4-2.13.81-3.24,1.21l-.47.18c-1.17.42-2.38.84-3.61,1.26l-.78.26q-1.86.63-3.81,1.23l-.66.2c-1.3.4-2.63.78-4,1.15l-.31.09c-1.4.38-2.85.74-4.31,1.09l-.87.2c-1.46.34-2.94.65-4.46.95l-.83.15c-1.61.3-3.24.58-4.92.83-2.36.34-4.68.59-7,.8l-.34,0-1.14.09-.5,0c-1.33.1-2.65.15-4,.21-.45,0-.9.06-1.34.07l-.67,0-.71,0H354q-3.4.06-6.74,0h-.2c-2.13-.07-4.22-.2-6.3-.36l-.45,0-.94-.08-.51-.06c-1.55-.14-3.09-.32-4.62-.51-.34-.05-.69-.07-1-.12h-.09l-.36-.05q-3-.42-5.83-.93l-.74-.15c-1.69-.31-3.36-.66-5-1l-.52-.11-.58-.13-.66-.16c-1.36-.32-2.7-.66-4-1l-1-.25h0l-.46-.13-.47-.14q-2.4-.66-4.73-1.36l-.71-.23c-1.47-.46-2.91-.93-4.32-1.42l-.59-.19,0,0c-.31-.1-.6-.22-.91-.33-1.16-.41-2.31-.83-3.44-1.25l-1.4-.53c-1.52-.58-3-1.17-4.45-1.77-.73-.32-1.47-.64-2.22-.95l-.68-.28-1.59-.64-.78-.31-1.59-.6-.71-.26c-.75-.27-1.5-.53-2.24-.77l0,0c-.73-.23-1.44-.45-2.15-.65l-.65-.18-.83-.22-.17,0-.49-.13-.71-.17-.42-.08-.19,0-.15,0-.67-.13L276,239a2,2,0,0,1-.24,0h0c-.56-.09-1.12-.17-1.65-.21h-.61c-.41,0-.82,0-1.21,0h-.18l-.48,0-.14,0a11.44,11.44,0,0,0-1.25.17c-.12,0-.26,0-.37.05h0a1.7,1.7,0,0,0-.24.09,5.72,5.72,0,0,0-1.14.43l-.07,0-.33.18,0,0a4.78,4.78,0,0,0-.78.63,1.39,1.39,0,0,0-.19.15s-.09.06-.12.1a5.7,5.7,0,0,0-1.28,3.13c-1.11,8.85,10.25,27.76,22.1,39.93l.22.22c1.19,1.21,2.43,2.38,3.71,3.54h0a56.62,56.62,0,0,1,62.76-7.13,57.6,57.6,0,0,1,5.16,3,56.93,56.93,0,0,1,20.06,23.32c.7-.08,1.41-.13,2.1-.23,1.18-.17,2.19-.34,3.15-.52A62.06,62.06,0,0,0,365,281a56.57,56.57,0,0,1,51.52,6.19,56.87,56.87,0,0,1,8,6.51h0c1-1.37,2-2.79,3-4.24,6.55-10.18,10.27-21.95,10.79-31.56C438.68,250.38,437.16,244.2,433.54,241.08Z"/><path class="cls-6" d="M371.11,319.24h-2.78c-.82,0-1.63,0-2.45-.07q-.53,0-1.05-.06l-2.35-.14-2.4-.21-.39,0-.93-.11-1.17-.14c-.84-.09-1.67-.18-2.51-.3l-.55-.08-1.38-.19-.24-.05c-1.51-.24-3-.52-4.29-.78l-.33-.06a4.21,4.21,0,0,1-.49-.09l-.6-.11-.95-.19-.22-.06c-1.63-.36-3.19-.75-4.65-1.13l-.58-.14c-.27-.06-.54-.12-.8-.2l-.61-.15c-2.53-.7-4.82-1.39-7-2.11-1.62-.54-3.27-1.14-4.91-1.76a118.13,118.13,0,0,1-37.21-22.32l-1.71-1.56,1.78-1.42a58.58,58.58,0,0,1,37.88-14c1.7,0,3.43.07,5.13.22a59,59,0,0,1,27.26,9.5,58.77,58.77,0,0,1,20.14,22.86l.66-.08.55-.08a60.13,60.13,0,0,0-18.14-21.86l-2.9-2.16,3.39-1.27a58.09,58.09,0,0,1,20.42-3.69c1.7,0,3.43.08,5.13.23a59,59,0,0,1,35.8,16.4l1.84.93-1.43,1.89a61.19,61.19,0,0,1-7,7.73c-8.07,7.47-18.33,12.55-30.51,15.08l-1.94.41v0l-1.08.19v0l-2.16.32c-.73.1-1.46.17-2.2.24l-1,.1-.81.09-1.66.17h-.21l-1.25.06-2.53.12c-.64,0-1.29.06-1.94.07Z"/><path class="cls-2" d="M328.25,273.76c1.64,0,3.29.07,5,.22a56.31,56.31,0,0,1,21.18,6.15,55.3,55.3,0,0,1,5.16,3,56.86,56.86,0,0,1,20.06,23.32c.7-.08,1.41-.14,2.1-.24,1.18-.16,2.19-.33,3.15-.51a62.09,62.09,0,0,0-19.83-25,56.24,56.24,0,0,1,19.73-3.56c1.64,0,3.29.07,5,.21a57,57,0,0,1,34.8,16.06h0a59.15,59.15,0,0,1-6.74,7.48c-8.13,7.54-18.34,12.26-29.57,14.6h0c-1.67.34-3.36.62-5.06.86h0v0c-1,.14-2.07.22-3.1.32-.81.09-1.6.2-2.42.26h-.22c-.63.05-1.28.06-1.91.1l-1.12.05c-.85,0-1.69.09-2.55.1h-.74l-1.83,0h-.72c-.86,0-1.72,0-2.58-.07l-1.48-.09-1.32-.08-.54,0c-.79-.06-1.57-.12-2.36-.2l-.37,0-1.41-.17c-1.05-.12-2.09-.23-3.13-.37-.64-.09-1.27-.17-1.9-.27l-.33-.06c-1.37-.22-2.75-.48-4.13-.75l-.81-.15-1.53-.3-.28-.07c-1.51-.33-3-.71-4.51-1.1-.45-.12-.91-.21-1.36-.33l-.59-.15q-3.46-.94-6.88-2.08-2.43-.82-4.83-1.74a116.3,116.3,0,0,1-36.58-21.93h0a57.53,57.53,0,0,1,8.68-6.08,56.33,56.33,0,0,1,27.94-7.42m0-3.95h0a60.49,60.49,0,0,0-29.9,7.94,61.75,61.75,0,0,0-9.24,6.48l-3.51,2.89,3.37,3.07a120.36,120.36,0,0,0,37.84,22.7c1.68.64,3.35,1.24,5,1.79,2.19.74,4.51,1.44,7.08,2.15l.43.1.18.05.88.22.52.12c1.48.38,3.05.78,4.66,1.13l.29.07c.33.08.67.14,1,.2l.58.12.55.1.29.05c1.34.26,2.8.54,4.26.77l.34.06c.47.08.95.14,1.43.21l.53.07c.88.13,1.75.22,2.58.32l.65.07.51.06,1,.11h.06l.32,0c.82.08,1.63.14,2.45.2l.36,0h.2l.88.05.47,0,.48,0,1.07.07c.81,0,1.63,0,2.44.06h3.67c.66,0,1.33-.05,2-.08l.66,0,1.16-.05.69,0,1.27-.07.27,0c.58,0,1.16-.11,1.73-.17l.79-.09,1-.1c.73-.07,1.49-.14,2.27-.25l1.64-.23,0,.08,1.31-.27,1.37-.19,0-.09,1-.21c12.54-2.6,23.12-7.84,31.45-15.56a62.37,62.37,0,0,0,7.2-8l2.12-2.78-2.51-2.44,0,0a61,61,0,0,0-37.19-17.14c-1.76-.15-3.54-.23-5.3-.23a60.09,60.09,0,0,0-21.11,3.81l-4,1.49c-1.12-.67-2.28-1.32-3.46-1.93a60,60,0,0,0-22.66-6.58c-1.76-.16-3.54-.24-5.3-.24Z"/></g><g id="oeil"><path class="cls-2" d="M291.74,111.87a52.65,52.65,0,0,0-35.85,33.49l31.3,17.2-30.66,18.95a52.64,52.64,0,0,0,35.21,31.73,52.52,52.52,0,0,0,0-101.37Z"/></g><g id="oeil-2" data-name="oeil"><path class="cls-2" d="M439.74,114.21a52.64,52.64,0,0,0-35.86,33.49l31.3,17.2-30.66,18.95a52.63,52.63,0,0,0,35.22,31.73,52.52,52.52,0,0,0,0-101.37Z"/></g><g id="moustache"><polygon class="cls-7" points="436.23 257.94 364.8 230.59 370.77 214.99 442.21 242.33 446.54 231.01 463.96 259.61 431.9 269.26 436.23 257.94"/><path class="cls-2" d="M371.91,217.54l71.43,27.34,3.61-9.41,14,23-25.77,7.76,3.6-9.41-71.43-27.34,4.56-11.92m-2.28-5.1-1.41,3.69-4.56,11.92-1.41,3.68,3.69,1.41,67.75,25.93-2.2,5.73-2.87,7.51,7.7-2.32,25.77-7.76,4.88-1.47-2.65-4.36-14-23-4.18-6.86-2.88,7.51-2.19,5.73-67.75-25.94-3.69-1.41Z"/><polygon class="cls-7" points="252.84 265.13 259.65 274.27 348.48 208.19 358.46 221.59 269.62 287.68 276.42 296.82 234.96 303.05 252.84 265.13"/><path class="cls-2" d="M348.08,211l7.62,10.24-88.84,66.08,6,8.09-34.56,5.19,14.9-31.61,6,8.09L348.08,211m.81-5.52-3.17,2.35-85.67,63.73-3.66-4.92-3.93-5.28-2.8,5.95-14.91,31.61-3.15,6.68,7.31-1.1,34.55-5.19,6.51-1L276,293l-3.66-4.93,85.67-63.73,3.17-2.35-2.36-3.17-7.62-10.24-2.35-3.16Z"/></g><g id="sous_nez" data-name="sous nez"><path class="cls-5" d="M359.08,235.64c-16.75,0-35.9-5.18-37.65-13.56-.63-3,.84-6.83,4.25-11,7.85-9.66,24.47-19.66,38.69-19.66a24,24,0,0,1,13.38,3.73c9,5.89,15.84,20.45,10.77,29.7C384.75,231.7,374,235.64,359.08,235.64Z"/><path class="cls-2" d="M364.37,193.38a22.08,22.08,0,0,1,12.3,3.4c8.61,5.61,14.52,19.09,10.12,27.11-3.83,7-15.44,9.78-27.71,9.78-16.54,0-34.28-5.11-35.71-12-1.85-8.84,21.6-28.29,41-28.29h0m0-3.95h0c-14.8,0-32.08,10.37-40.22,20.39-3.85,4.72-5.41,9-4.65,12.66,2.3,11,25.5,15.14,39.58,15.14,9.22,0,25.52-1.54,31.17-11.84s-1.5-25.83-11.42-32.31a26,26,0,0,0-14.46-4Z"/></g><g id="nez"><path id="nez-2" data-name="nez" class="cls-6" d="M364.37,193.38a22.08,22.08,0,0,1,12.3,3.4c8.61,5.61,14.52,19.09,10.12,27.11-3.83,7-15.44,9.78-27.71,9.78-16.54,0-34.28-5.11-35.71-12-1.85-8.84,21.6-28.29,41-28.29"/><path class="cls-5" d="M355.8,204.91c-.65-3.12,9.66-10.83,15.31-7.15,2.48,1.62,4.17,5.49,2.91,7.79C371.44,210.26,356.52,208.36,355.8,204.91Z"/></g></g></g></svg>