<svg xmlns="http://www.w3.org/2000/svg" viewBox="0 0 724.33 467.32"><defs><style>.cls-1{fill:#1d1d1b;}.cls-2{fill:#5e5e70;}.cls-3{fill:#7d9ea7;}.cls-4{fill:#fff;}.cls-5{fill:#fbe7c2;}.cls-6{fill:#601200;}.cls-7{fill:#e46b36;}</style></defs><g id="Calque_2" data-name="Calque 2"><g id="transformers"><g id="appareil"><g id="fond"><path class="cls-1" d="M46.59,421.17A44.74,44.74,0,0,1,2,376.56V140.37l2.49-19.72,0-.13a79.83,79.83,0,0,1,77.36-59.9h131.3c3.09,0,6,.07,8.9.14,2.57.07,5,.13,7.31.13,14.16,0,20.89-2.51,20.89-16.77,0-38.89,33-42.15,63.89-42.15h98.73c34.79,0,67,5.11,67,42.15l-.56,16.5h33.05a80,80,0,0,1,77.36,59.9l0,.13,2.48,19.72V376.78l-4.35,18.9-.09.2a44.29,44.29,0,0,1-40.17,25.29Z"/><path class="cls-1" d="M412.87,4c35.05,0,65,5.12,65,40.17l-.64,18.47h35.1A78,78,0,0,1,587.79,121l2.45,19.47h0V376.56L586,395A42.61,42.61,0,0,1,547.6,419.2h-501A42.77,42.77,0,0,1,4,376.56V140.49H4L6.4,121A77.94,77.94,0,0,1,81.85,62.59h131.3c5.86,0,11.33.27,16.21.27,13.79,0,22.87-2.17,22.87-18.74h0c0-35,26.86-40.17,61.91-40.17h98.73m0-3.95H314.14C298.6,0,281,.88,268.25,7.37c-13.44,6.86-20,18.88-20,36.75,0,12.56-5,14.79-18.92,14.79-2.28,0-4.7-.06-7.26-.12-2.87-.07-5.84-.15-8.95-.15H81.85A81.81,81.81,0,0,0,2.58,120l-.06.24,0,.25L0,140l0,.24V376.56a46.13,46.13,0,0,0,4.64,20.18A46.82,46.82,0,0,0,21.5,415.79a46.31,46.31,0,0,0,25.09,7.36h501a46.56,46.56,0,0,0,41.94-26.41l.2-.4.1-.43,4.25-18.47.1-.44V140.24l0-.24-2.46-19.48,0-.25-.06-.24a82,82,0,0,0-79.27-61.39h-31l.49-14.38v-.14c0-17.58-7.27-29.95-21.61-36.79C446.68.87,428.68,0,412.87,0Z"/></g><g id="bouton"><g id="fond-2" data-name="fond"><path class="cls-1" d="M201.33,78.69l-.45-.26a61,61,0,0,0-30.25-8.07,61.9,61.9,0,0,0-10.94,1l-28.14,5.1-2-11.3.2-25,28.24.23.05-6.23,28.18.22-.05,6.24,24.12.19-.31,38Z"/><path class="cls-1" d="M160,36.13l24.23.2-.05,6.23,24.12.19-.27,34-6.13,0a62.73,62.73,0,0,0-42.52-7.32l-26.2,4.75L131.48,65l.18-22.83,28.25.23.05-6.24m-3.91-4,0,3.94,0,2.29-24.31-.19-3.94,0,0,3.94-.19,22.82v.38l.07.36,1.66,9.18.71,3.88,3.88-.7L160,73.28a59.92,59.92,0,0,1,10.59-1,59,59,0,0,1,29.27,7.81l.89.52h1l6.13,0,3.94,0,0-3.94.27-34,0-3.95-4,0-20.17-.16,0-2.29,0-4-3.95,0L160,32.19l-3.94,0Z"/></g><g id="bouton-2" data-name="bouton"><path class="cls-2" d="M213,78.69l-.45-.26a61,61,0,0,0-30.25-8.07,62.07,62.07,0,0,0-10.94,1l-28.13,5.1-2-11.3.2-25,28.25.23.05-6.23,28.17.22,0,6.24,24.12.19-.3,38Z"/><path class="cls-1" d="M171.6,36.13l24.23.2-.05,6.23,24.12.19-.27,34-6.13,0A62.73,62.73,0,0,0,171,69.4l-26.19,4.75L143.12,65l.19-22.83,28.24.23,0-6.24m-3.91-4,0,3.94,0,2.29-24.3-.19-4,0,0,3.94-.18,22.82v.38l.07.36,1.66,9.18.71,3.88,3.88-.7,26.19-4.75a59.92,59.92,0,0,1,10.59-1,59,59,0,0,1,29.27,7.81l.9.52h1l6.13,0,3.94,0,0-3.94.27-34,0-3.95-3.95,0-20.17-.16,0-2.29,0-4-3.94,0-24.23-.19-3.95,0Z"/></g></g><g id="appareil-2" data-name="appareil"><path class="cls-2" d="M82.1,421.35a44.74,44.74,0,0,1-44.62-44.62V140.54L40,120.82l0-.12a79.84,79.84,0,0,1,77.36-59.91h131.3c3.09,0,6,.07,8.9.15,2.57.06,5,.12,7.31.12,14.16,0,20.9-2.51,20.9-16.77,0-38.89,33-42.14,63.88-42.14h98.73c34.79,0,67,5.1,67,42.14a15.89,15.89,0,0,0,15.87,16.5h16.62a80,80,0,0,1,77.36,59.91l0,.12,2.48,19.72V377l-4.35,18.91-.09.2a44.29,44.29,0,0,1-40.17,25.29Z"/><path class="cls-1" d="M448.38,4.12c35.05,0,65,5.12,65,40.17a17.85,17.85,0,0,0,17.84,18.47h16.62a78,78,0,0,1,75.45,58.43l2.45,19.48h0V376.73L621.5,395.2a42.61,42.61,0,0,1-38.39,24.18H82.1a42.77,42.77,0,0,1-42.64-42.65V140.67h0l2.45-19.48a77.94,77.94,0,0,1,75.45-58.43h131.3c5.86,0,11.33.27,16.21.27,13.79,0,22.87-2.16,22.87-18.74h0c0-35,26.86-40.17,61.91-40.17h98.73m0-3.95H349.65c-15.54,0-33.16.88-45.89,7.38-13.44,6.85-20,18.87-20,36.74,0,12.56-5,14.8-18.92,14.8-2.28,0-4.7-.06-7.26-.13-2.87-.07-5.84-.14-9-.14H117.36a81.79,81.79,0,0,0-79.27,61.39l-.06.24,0,.25-2.46,19.47,0,.25V376.73a46.13,46.13,0,0,0,4.64,20.18A46.91,46.91,0,0,0,57,416a46.3,46.3,0,0,0,25.09,7.35h501A46.3,46.3,0,0,0,608.2,416a46.91,46.91,0,0,0,16.86-19.06l.19-.4.1-.43,4.25-18.46.1-.44V140.42l0-.25-2.46-19.47,0-.25-.06-.24a82,82,0,0,0-79.27-61.39H531.23a13.92,13.92,0,0,1-13.9-14.39v-.14c0-17.57-7.27-29.95-21.61-36.79C482.19,1.05,464.19.17,448.38.17Z"/></g></g><g id="bras_droit" data-name="bras droit"><path class="cls-3" d="M639.06,279.25c-11,0-22.08-2.08-32.75-4.09-4.84-.91-9.84-1.85-14.77-2.58l-2-.29.3-2c.21-1.41.39-2.66.55-3.79.33-2.35.6-4.19,1-6.06.31-1.55.75-3,1.21-4.61.2-.7.41-1.41.62-2.16l.47-1.69,1.73.26c3.77.58,7.51,1.18,11.24,1.77,8,1.27,16.23,2.59,24.32,3.61a81.12,81.12,0,0,0,10.1.73h0c15.24,0,21.29-6.17,25.9-26.41.12-.59,1-7,1.65-12.22,1-7.69,1.47-11.1,1.57-11.57l.35-1.6,1.64,0a78.17,78.17,0,0,1,16.39,2.68l1.92.47-.49,1.92c-.69,2.77-1.73,8-2.93,14.13-2.28,11.58-5.12,26-7.23,31.22-4.09,10.17-11.78,17.2-21.64,19.81a74,74,0,0,1-19.16,2.38Z"/><path class="cls-1" d="M672.14,208.61a76,76,0,0,1,16,2.62c-2.05,8.14-7,37.36-10.08,45.1-3.64,9-10.53,16-20.32,18.63a72,72,0,0,1-18.65,2.31c-15.84,0-31.4-4.29-47.23-6.64.65-4.3,1-7.06,1.5-9.76.43-2.15,1.14-4.24,1.8-6.64,12,1.84,23.79,3.89,35.61,5.39a84.2,84.2,0,0,0,10.35.74c16.55,0,23.16-7.47,27.83-27.94.2-.9,3-22.91,3.22-23.81M669,204.56l-.7,3.21c-.11.5-.37,2.48-1.6,11.76-.66,5-1.48,11.18-1.63,12.08-4.39,19.24-9.77,24.81-24,24.81a79.3,79.3,0,0,1-9.85-.72c-8.06-1-15.93-2.27-24.26-3.6-3.68-.58-7.48-1.19-11.25-1.77l-3.47-.53-.93,3.38c-.2.74-.41,1.44-.61,2.13-.48,1.62-.93,3.14-1.26,4.78-.38,1.93-.65,3.8-1,6.18-.16,1.13-.33,2.36-.55,3.77l-.59,3.91,3.92.58c4.89.73,9.88,1.67,14.7,2.57,10.75,2,21.87,4.12,33.11,4.12a76,76,0,0,0,19.66-2.44c10.49-2.78,18.64-10.23,23-21,2.18-5.41,4.92-19.31,7.33-31.57,1.2-6.07,2.24-11.32,2.92-14l1-3.84-3.84-.95a80.24,80.24,0,0,0-16.8-2.74l-3.28-.1Z"/><path class="cls-4" d="M681.57,222.8l-1,0h-.11l-1.22-.05-1-.08c-.39,0-.77-.07-1.15-.12l-1-.13c-.37-.06-.73-.11-1.08-.18l-.92-.19-1-.25c-.29-.07-.58-.16-.87-.25l-.94-.31c-.28-.1-.55-.2-.81-.31s-.59-.25-.87-.39l-.76-.37-.79-.46c-.23-.15-.47-.29-.69-.45s-.48-.34-.71-.52l-.1-.08c-.18-.14-.37-.29-.54-.44s-.42-.4-.63-.61l-.09-.1c-.16-.15-.31-.31-.46-.48s-.35-.42-.51-.64l-.14-.19c-.13-.16-.25-.33-.37-.5s-.28-.46-.41-.69l-.14-.25c-.1-.17-.19-.34-.28-.52s-.22-.5-.33-.76l-.11-.28a5,5,0,0,1-.21-.54c-.1-.28-.17-.57-.25-.87l-.08-.3a4.77,4.77,0,0,1-.13-.51c-.08-.36-.13-.74-.18-1.11l0-.23c0-.14,0-.29-.06-.45a16.74,16.74,0,0,1-.1-1.87v-2H664c-8.77-3.56-16.8-8.51-20.42-19.71a24.88,24.88,0,0,1-1.17-5.54,18.72,18.72,0,0,1-.05-2.69,16,16,0,0,1,1.16-5.14,18.4,18.4,0,0,1,5-6.79l1.35-1.19,1.31,1.24c.58.55,1.13,1.06,1.66,1.54l.47.41c.34.31.69.62,1,.89l.53.44.81.65.39.29.13.09.68.48c.16.11.32.2.47.29s.42.25.62.35l.44.22c.18.08.36.16.54.22l.4.14a3.18,3.18,0,0,0,.51.13l.39.08.52,0,.27,0h.48l.53-.06.4-.07.61-.14.47-.13.67-.23.38-.13.25-.05a8.38,8.38,0,0,0,4.84-2.3l.2-.2,2-1.11,4,1.41.28.25a9.93,9.93,0,0,0,6.66,2.36h.48l5.53,1.94c.11-.3.22-.59.32-.88.25-.67.49-1.32.73-1.92s.41-1,.61-1.43l.79-1.67,1.72.67c.62.24,1.25.51,1.87.8l.19.08c.59.27,1.16.55,1.73.83l.4.19.29.35a9,9,0,0,0,7.28,3.59,11.87,11.87,0,0,0,1.33-.08,6.75,6.75,0,0,0,2.62-1l.09-.06.18-.09a13.19,13.19,0,0,0,2.09-1.53c.47-.41,1-.87,1.53-1.43a9,9,0,0,0,1.85-3.75c.32-.94.68-2,1.19-3.21a2.68,2.68,0,0,1,2.45-1.61,2.71,2.71,0,0,1,2.46,1.56c.16.35.36.72.56,1.09.81,1.51,1.58,2.94,1.15,4.37-.62,2.11-1.2,4.15-1.77,6.15l-.46,1.61c-.79,2.76-1.46,5.07-2.17,7.34-.61,1.93-1.19,3.66-1.78,5.27-.67,1.84-1.34,3.52-2,5.12a24.23,24.23,0,0,1-1.53,2.91l-.29.48a22.16,22.16,0,0,1-1.77,2.4l-.38.43a20.35,20.35,0,0,1-2.11,2.07l-.19.14a20.17,20.17,0,0,1-2.29,1.61l-.1.07-.28.17a21.76,21.76,0,0,1-2.56,1.24l-.53.22a25.09,25.09,0,0,1-2.77.87l-.37.08a25.84,25.84,0,0,1-2.68.47l4.13.71.12,1.53c.31,4-.5,7-2.49,9.18-2.58,2.88-7.12,4.33-14.29,4.56l-1.41,0Z"/><path class="cls-1" d="M718.07,163.12a.73.73,0,0,1,.67.42c.69,1.46,1.87,3.17,1.61,4.07-.79,2.67-1.52,5.26-2.24,7.76s-1.42,4.94-2.16,7.29q-.83,2.66-1.75,5.2c-.61,1.7-1.27,3.36-2,5h0a22.58,22.58,0,0,1-1.41,2.68l-.26.44a20,20,0,0,1-1.62,2.19c-.11.13-.22.26-.34.38a16.83,16.83,0,0,1-1.91,1.87l-.16.13a17.66,17.66,0,0,1-2.08,1.46l-.34.21a18.43,18.43,0,0,1-2.32,1.13l-.48.19a20.86,20.86,0,0,1-2.54.8l-.35.08a24,24,0,0,1-2.63.45l-.33,0a27.45,27.45,0,0,1-2.9.15h-.68l-1.58-.06-.74,0c-.78-.06-1.56-.14-2.35-.25h0c.2.88.41,1.77.61,2.65l10.67,1.82c.63,8-3.69,11.26-14.87,11.61-.46,0-.91,0-1.35,0h-.63l-1,0-1.17-.05-1-.08c-.36,0-.73-.06-1.08-.11s-.62-.08-.92-.12l-1-.17c-.29-.05-.57-.11-.85-.18l-.93-.22-.8-.23-.85-.29c-.25-.09-.5-.18-.73-.28s-.53-.22-.78-.34l-.67-.33c-.24-.13-.47-.27-.69-.41s-.41-.25-.61-.38l-.61-.46c-.19-.15-.37-.29-.54-.44s-.37-.35-.54-.53-.32-.31-.46-.48-.32-.39-.47-.59-.27-.35-.39-.53-.27-.45-.4-.67l-.31-.56c-.12-.25-.21-.51-.32-.76s-.16-.39-.23-.59-.17-.57-.25-.87-.11-.39-.15-.59-.12-.69-.17-1c0-.18-.06-.35-.08-.53-.05-.55-.09-1.11-.09-1.69h11.6c-12.63-4.57-25-7.73-29.69-22.29a23.18,23.18,0,0,1-1.08-5.1,17.59,17.59,0,0,1,0-2.4,13.89,13.89,0,0,1,1-4.51,16.48,16.48,0,0,1,4.5-6.06c.59.56,1.14,1.08,1.68,1.57l.48.42,1,.93c.19.16.38.3.56.46s.58.47.86.68l.56.42.75.53.55.34c.24.14.47.28.71.4l.53.26a6.5,6.5,0,0,0,.68.28,4.56,4.56,0,0,0,.52.18c.22.07.45.12.68.17l.51.1c.23,0,.47,0,.71.06s.23,0,.36,0l.16,0,.47,0a5.41,5.41,0,0,0,.68-.07l.5-.09.71-.16.55-.16.76-.25.25-.08A10.35,10.35,0,0,0,671,170l1-.55,2.83,1a11.87,11.87,0,0,0,7.95,2.84H683l4,1.4c-6.65,13-19,11.85-31,12.51.93.31,1.85.59,2.77.85l.71.2c.94.26,1.88.51,2.81.7h0c.9.19,1.8.34,2.68.45l.68.09c.91.09,1.81.16,2.7.16h0c.44,0,.88,0,1.32-.07l.61,0c.65-.07,1.29-.16,1.92-.29,5-1,10.35-3.51,13.82-7,3-3.07,4.33-7.76,5.63-11.06q.28-.72.57-1.32c.59.23,1.19.49,1.78.75l.18.09c.57.26,1.13.53,1.68.8h0a11,11,0,0,0,8.82,4.32,11.93,11.93,0,0,0,1.57-.1,8.24,8.24,0,0,0,3.41-1.27c.08,0,.17-.07.25-.12a16.13,16.13,0,0,0,2.38-1.74c.53-.47,1.07-1,1.62-1.52,1.87-1.85,2-4.3,3.46-7.57a.69.69,0,0,1,.64-.42m0-4a4.65,4.65,0,0,0-4.26,2.8c-.55,1.27-.92,2.39-1.25,3.37a7.47,7.47,0,0,1-1.36,3c-.54.53-1,1-1.44,1.35a11.81,11.81,0,0,1-1.7,1.26l-.2.11-.11,0-.1.07a4.8,4.8,0,0,1-1.81.71,10.32,10.32,0,0,1-1.1.07,7.09,7.09,0,0,1-5.74-2.85l-.54-.67-.78-.39h0c-.58-.29-1.17-.57-1.77-.85l-.15-.07-.05,0c-.75-.34-1.38-.61-2-.84l-3.44-1.34-1.56,3.34c-.21.45-.43.95-.66,1.54l-.4,1-1.4-.49-2-.69-.65-.23h-.9a7.94,7.94,0,0,1-5.28-1.89l-.57-.49-.7-.24-2.84-1-1.66-.58-1.55.85-.68.37-.31.17-.5.27-.4.4a6.43,6.43,0,0,1-3.73,1.75l-.42.06-.34.13-.25.08c-.2.08-.4.14-.59.2l-.39.11-.48.11c-.11,0-.21,0-.32.06l-.39,0H661l-.23,0a1.88,1.88,0,0,1-.34,0l-.22,0-.38-.09-.28-.1-.41-.17-.35-.17-.49-.29-.42-.26c-.2-.13-.41-.28-.61-.43l-.15-.1-.33-.24-.75-.61-.21-.17-.3-.25c-.31-.27-.65-.56-1-.86l-.22-.2-.24-.2-1.62-1.51-2.62-2.48-2.7,2.38a20.47,20.47,0,0,0-5.54,7.53,18.09,18.09,0,0,0-1.3,5.77,21.14,21.14,0,0,0,0,3,27.12,27.12,0,0,0,1.26,6c3.37,10.4,10.15,15.69,17.89,19.33v1.76c0,.69,0,1.39.1,2.07,0,.19.05.38.09.57v.1l0,.1c.05.36.1.77.2,1.22,0,.22.1.43.16.65l0,.12,0,.14c.08.28.17.63.29,1,.08.22.17.44.26.66l0,.13.05.12c.1.25.22.56.39.89a6.71,6.71,0,0,0,.35.65l.07.12.05.1c.13.23.29.51.49.82s.29.42.45.62l.08.1,0,.07c.16.21.35.47.59.74s.36.4.55.59l.08.07c.21.22.45.47.74.72s.42.35.65.53l.06,0c.26.21.53.41.82.61s.51.34.78.5.59.35.89.52l.85.42c.31.14.63.29,1,.42l.89.35,1,.34.94.27,1.09.26q.48.12,1,.21l1.15.19,1,.14c.4,0,.8.09,1.21.12l1.08.09,1.28.05,1.12,0h.66l1.47,0c7.85-.25,12.7-1.86,15.7-5.22,2.37-2.63,3.34-6.12,3-10.65l-.12-1.5.43-.16.58-.23a22.08,22.08,0,0,0,2.8-1.37l.35-.21.07,0a22.85,22.85,0,0,0,2.46-1.73l.26-.2a22.08,22.08,0,0,0,2.31-2.26l.07-.09c.12-.12.23-.25.34-.38a24,24,0,0,0,1.94-2.62l.24-.4.07-.12a26.45,26.45,0,0,0,1.65-3.13c.72-1.65,1.41-3.36,2.09-5.24.6-1.64,1.19-3.39,1.81-5.36.72-2.31,1.4-4.62,2.19-7.39l.49-1.72q.83-2.93,1.73-6c.66-2.21-.43-4.24-1.3-5.87-.2-.36-.38-.7-.52-1a4.71,4.71,0,0,0-4.24-2.69Z"/><path class="cls-4" d="M704.71,173.89l-.33,0c-.36,0-.66,0-1-.07l-.39-.08.28-1.95-.42,1.93c-.23,0-.47-.09-.69-.16l-.4-.13.55-1.9-.69,1.85a6.56,6.56,0,0,1-.62-.23l-.4-.2c-.27-.13-.47-.24-.66-.35l-.4-.27c-.22-.15-.4-.28-.57-.42s-.26-.22-.39-.34-.32-.28-.47-.44-.25-.26-.36-.39-.28-.32-.41-.49-.21-.27-.32-.42l-.35-.52c-.1-.15-.19-.3-.28-.45s-.21-.38-.31-.57-.16-.3-.24-.46-.18-.4-.27-.6c0,0-.16-.36-.21-.49l-.23-.63,0-.12c0-.13-.09-.25-.13-.38s-.13-.43-.2-.66-.09-.34-.13-.48-.12-.48-.17-.72l-.1-.45c0-.28-.1-.55-.14-.82l-.07-.39q-.09-.6-.15-1.2c-.28-2.85-.55-5.69-.81-8.54-.05.68-.1,1.35-.14,2-.07,1.22-.14,2.45-.17,3.68,0,.68,0,1.36-.09,2s-.1,1.45-.17,2.06a11.7,11.7,0,0,1-2.13,5.95,7.67,7.67,0,0,1-1.64,1.58,9.78,9.78,0,0,1-4.83,1.64l-.32,0c-.39,0-.68,0-1,0a11.3,11.3,0,0,1-2.25-.23l-.24,0a10.11,10.11,0,0,1-1.92-.65l-.27-.12a9.88,9.88,0,0,1-1.61-1l-.24-.19a10,10,0,0,1-1.31-1.3l-.19-.23a11.44,11.44,0,0,1-1-1.53l-.1-.17a14,14,0,0,1-.84-1.78l-.06-.16c-.23-.61-.42-1.17-.58-1.72a9.7,9.7,0,0,1-1.74,5.6,8.27,8.27,0,0,1-6,3.21l-.11,0h-1.21q-.36,0-.72-.06c-.3,0-.6-.08-.91-.14l-.73-.15c-.29-.07-.59-.16-.9-.26l-.72-.23c-.3-.11-.59-.23-.89-.36l-.13-.05-.56-.25c-.3-.14-.58-.3-.86-.45l-.14-.08-.49-.29a8.09,8.09,0,0,1-.77-.53l-.17-.12c-.14-.1-.29-.2-.42-.31a8.38,8.38,0,0,1-.74-.71l-.08-.08c-.12-.12-.24-.23-.34-.35a5.68,5.68,0,0,1-.88-1.4,42.76,42.76,0,0,1-2.8-9.09,43.35,43.35,0,0,1-.82-9.49c0-.83.07-1.69.15-2.7l.06-.67c.07-.78.16-1.53.27-2.23l0-.26c.12-.72.27-1.45.46-2.23,0-.17.09-.34.13-.5.17-.63.35-1.21.54-1.75a3.06,3.06,0,0,1,.12-.34,15.22,15.22,0,0,1,.78-1.76l.15-.29.06-.1a12.56,12.56,0,0,1,.82-1.3c.1-.16.16-.24.22-.32a11.09,11.09,0,0,1,1.16-1.3l.23-.2a10.33,10.33,0,0,1,1.19-.92l.34-.21a9,9,0,0,1,1.53-.74,2.14,2.14,0,0,1,.27-.09,10,10,0,0,1,1.43-.37l.43-.08a12.44,12.44,0,0,1,1.69-.12,14.08,14.08,0,0,1,2.44.22l.51.11.2,0c.63.14,1.22.29,1.81.48l.88.29c.58.21,1.19.45,1.86.74l.23.1.6.26c.7.34,1.37.67,2,1l.91-.3.73-.26,1-.36,2.1-.78,1-.37.7-.25,1-.31.67-.19,1-.24.15,0,.47-.09a12.83,12.83,0,0,1,1.34-.12,2.17,2.17,0,0,1,.36,0h0a8.34,8.34,0,0,1,1.78.17c3.56.73,6.52,3.37,8.48,5.12.25.22.49.44.72.63l1.07-.28.67-.2,1.35-.41,2.37-.75c.6-.19,1.18-.37,1.74-.53l.2-.06c.61-.18,1.2-.32,1.77-.45l.37-.07.14,0c.44-.08.86-.14,1.26-.19l.62,0,.46,0c.26,0,.52,0,.77,0a5.5,5.5,0,0,1,.56.05,6.73,6.73,0,0,1,1.49.4h0l.23.1c2.51,1.18,4.34,3.72,5.43,5.64a25.2,25.2,0,0,1,1.72,3.71,24.22,24.22,0,0,1,1,3.74,35,35,0,0,1,.6,6.55,36.58,36.58,0,0,1-.26,4.46,34.41,34.41,0,0,1-.8,4.35c-.18.7-.38,1.41-.6,2.08-1.45,4.39-5.71,11.13-10.26,11.69a11.69,11.69,0,0,1-1.32.08Z"/><path class="cls-1" d="M683.14,130.07a6.72,6.72,0,0,1,1.35.13c4,.84,7.46,4.8,9.11,6,.71-.16,1.4-.34,2.09-.53l.69-.21,1.39-.41.89-.29,1.49-.47,1.7-.52.18-.05q.86-.25,1.65-.42l.47-.09c.37-.07.74-.13,1.09-.17l.51,0h.36l.61,0,.41,0a4.34,4.34,0,0,1,1.21.35h0a11.43,11.43,0,0,1,4.56,4.82,24,24,0,0,1,1.57,3.42,22.32,22.32,0,0,1,1,3.43,33,33,0,0,1,.57,6.19,34.85,34.85,0,0,1-.25,4.21,31.92,31.92,0,0,1-.75,4.1c-.17.67-.36,1.32-.57,2-1.36,4.12-5.27,9.93-8.61,10.34a10.38,10.38,0,0,1-1.09.06h0l-.3,0c-.25,0-.5,0-.73,0l-.38-.07c-.19,0-.39-.07-.58-.13a2.43,2.43,0,0,1-.38-.13,4.6,4.6,0,0,1-.52-.19c-.12,0-.24-.12-.36-.18l-.46-.25a4,4,0,0,1-.34-.23l-.42-.3-.32-.28-.37-.35-.29-.31c-.12-.13-.23-.27-.34-.41s-.18-.23-.26-.35-.11-.16-.17-.24l-.13-.2c-.09-.13-.16-.25-.24-.38l-.27-.49-.21-.4c-.08-.17-.16-.35-.23-.53s-.13-.28-.18-.42-.14-.37-.21-.56l-.15-.44-.18-.6-.12-.44c-.06-.22-.1-.43-.15-.65s-.07-.28-.1-.43-.09-.49-.13-.74l-.06-.35c0-.37-.1-.75-.14-1.12-.58-5.85-1.09-11.71-1.64-17.57L692,143c-.28,3.75-.65,7.49-.89,11.23-.07,1.25-.14,2.5-.18,3.75,0,.66,0,1.32-.08,2s-.08,1.3-.16,1.94a10,10,0,0,1-1.73,5,5.71,5.71,0,0,1-1.22,1.18,7.77,7.77,0,0,1-3.87,1.29h-.34c-.25,0-.51,0-.76,0h0a9.76,9.76,0,0,1-1.85-.18l-.19,0a7.84,7.84,0,0,1-1.55-.52l-.2-.09a7.3,7.3,0,0,1-1.28-.81l-.19-.14a8.93,8.93,0,0,1-1.07-1.06l-.15-.19a9.59,9.59,0,0,1-.87-1.28l-.12-.21a13.43,13.43,0,0,1-.7-1.48c0-.07-.05-.13-.07-.2a17.18,17.18,0,0,1-.55-1.67l0-.14c-.16-.6-.3-1.23-.41-1.87-.67-3.82-.75-7.74-1.06-11.62-.2-2.45-.34-4.9-.51-7.36l-3.18.26c.15,3,.14,6.11.24,9.17.07,2.29.2,4.57.49,6.82.1.74.22,1.49.36,2.23,1.06,5.6-.82,9.53-5.69,10.07H664a3,3,0,0,1-.43,0h-.41c-.19,0-.39,0-.59,0l-.76-.11-.62-.14c-.27-.06-.53-.14-.8-.22l-.63-.21c-.27-.09-.53-.2-.79-.31s-.41-.17-.61-.27-.5-.26-.75-.4-.38-.2-.55-.31-.46-.32-.69-.48l-.45-.33a8.28,8.28,0,0,1-.6-.58l-.3-.3a4.43,4.43,0,0,1-.6-.93,42.18,42.18,0,0,1-2.67-8.67,43.06,43.06,0,0,1-.78-9.07c0-.91.08-1.76.14-2.6l.06-.64c.07-.73.15-1.44.26-2.11,0-.08,0-.17,0-.24.12-.74.27-1.42.43-2.08l.12-.49c.15-.55.31-1.07.49-1.56a2.64,2.64,0,0,1,.1-.3,15.14,15.14,0,0,1,.69-1.57c.06-.12.13-.23.19-.34.22-.4.45-.76.69-1.11.07-.08.12-.18.19-.26a9,9,0,0,1,1-1.07l.22-.2a6.61,6.61,0,0,1,.91-.69l.27-.18a7.52,7.52,0,0,1,1.21-.59l.23-.07a8.65,8.65,0,0,1,1.14-.29l.36-.07a10.6,10.6,0,0,1,1.4-.1h0a11.48,11.48,0,0,1,2.06.2c.21,0,.43.09.64.13.53.12,1.07.25,1.64.43l.8.27c.56.2,1.14.43,1.73.69l.78.34c.85.4,1.72.84,2.63,1.36.6-.17,1.19-.36,1.78-.56l.64-.23,1.13-.41,1.12-.42,1-.36,1-.37.67-.23.92-.28.62-.18c.32-.09.62-.15.93-.21l.53-.11a8.63,8.63,0,0,1,1.12-.1l.28,0h0m0-3.95h0a4.36,4.36,0,0,0-.51,0,13.25,13.25,0,0,0-1.49.14l-.57.11-.13,0c-.36.07-.74.15-1.16.26l-.7.2-1.09.34-.73.26-1.05.38-.26.09-.73.28-1.11.42-1,.36-.06,0-.21.08-.38.13-.1,0c-.44-.23-.89-.45-1.36-.67l-.66-.29-.22-.1c-.71-.31-1.36-.57-2-.79l-1-.32c-.65-.2-1.3-.37-2-.52l-.15,0c-.21,0-.43-.1-.63-.13a16.94,16.94,0,0,0-2.72-.26h0a13.37,13.37,0,0,0-2,.15l-.44.07-.07,0a10.94,10.94,0,0,0-1.64.42l-.39.13a10.82,10.82,0,0,0-1.85.89c-.13.08-.25.15-.37.24l0,0a12.74,12.74,0,0,0-1.37,1l-.32.29a11.31,11.31,0,0,0-1.38,1.54c-.08.1-.16.22-.24.33a14.87,14.87,0,0,0-1,1.52l0,.08-.2.36a18.44,18.44,0,0,0-.87,2l-.12.33c-.22.61-.41,1.24-.59,1.9l0,.09c-.05.16-.09.32-.13.49-.2.82-.36,1.59-.48,2.37a1.93,1.93,0,0,0,0,.27c-.11.72-.21,1.49-.29,2.35l-.06.7c-.08,1-.13,1.93-.15,2.81a46,46,0,0,0,.85,9.92,45.29,45.29,0,0,0,2.93,9.5,8,8,0,0,0,1.17,1.87,5.09,5.09,0,0,0,.51.52h0a12.21,12.21,0,0,0,.94.89c.16.14.35.27.54.41l.09.06.06.05c.24.17.53.38.88.6.18.12.38.23.58.34l.13.07c.33.18.64.35,1,.51l.65.29.11,0,1,.4.77.25,1.06.3.82.17c.37.07.71.12,1,.16a8.54,8.54,0,0,0,.86.07l.59,0,.55,0h.22l.26,0a10.21,10.21,0,0,0,7.36-4,9.08,9.08,0,0,0,.63-1c.19.28.39.54.6.8l.22.27a12.17,12.17,0,0,0,1.57,1.56l.25.2a11.54,11.54,0,0,0,2,1.25l.3.14a11.2,11.2,0,0,0,2.33.78,1.65,1.65,0,0,0,.32.06,13.08,13.08,0,0,0,2.56.26c.35,0,.69,0,1,0l.46,0a11.71,11.71,0,0,0,5.79-2,9.71,9.71,0,0,0,2.06-2,11.16,11.16,0,0,0,1.33-2.22l.15.4c.06.16.13.32.2.49l0,.05c.09.22.19.45.3.67l.27.53c.12.22.23.44.36.65s.21.34.32.51.1.16.16.24l.06.09a3,3,0,0,0,.2.29c.11.16.24.33.36.49s.32.39.49.57l.42.46c.18.19.37.36.56.53l.48.41c.21.17.42.32.64.47l0,0a5.39,5.39,0,0,0,.5.33c.23.14.47.27.71.4l.07,0,.51.25c.25.11.51.2.77.29h0l.05,0,.06,0,.53.17a7.82,7.82,0,0,0,.86.19l.06,0c.21,0,.39.08.58.1.4.06.77.07,1.05.09l.5,0a11.85,11.85,0,0,0,1.6-.1c6-.72,10.59-9.08,11.89-13,.24-.71.45-1.46.64-2.22a35.61,35.61,0,0,0,.85-4.6,40.58,40.58,0,0,0,.28-4.69,37.34,37.34,0,0,0-.65-6.92,26,26,0,0,0-1.13-4.05,28.25,28.25,0,0,0-1.85-4c-1.24-2.16-3.33-5-6.31-6.44l0,0,0,0-.13-.06-.17-.08h0a8.37,8.37,0,0,0-1.87-.5c-.2,0-.42,0-.63-.06H707c-.31,0-.63,0-.93,0l-.56,0c-.24,0-.48,0-.73.05-.44,0-.92.12-1.41.21l-.12,0-.45.08q-.95.21-1.89.48l-.18.06c-.61.17-1.2.36-1.82.55l-1.49.48-.71.22-.16.05-1.32.4-.17,0-.47.14h0c-2.12-1.88-5.28-4.67-9.31-5.51a10.67,10.67,0,0,0-2.15-.21Z"/></g><g id="contour"><circle class="cls-1" cx="368.86" cy="264.23" r="201.12" transform="translate(-78.8 338.22) rotate(-45)"/><path class="cls-1" d="M368.86,65.08c110,0,199.15,89.16,199.15,199.15S478.85,463.37,368.86,463.37,169.72,374.21,169.72,264.23,258.88,65.08,368.86,65.08m0-3.94a202.45,202.45,0,1,0,79.06,16,201.85,201.85,0,0,0-79.06-16Z"/></g><g id="contour-2" data-name="contour"><circle class="cls-2" cx="403.6" cy="264.23" r="201.12" transform="translate(-68.63 362.78) rotate(-45)"/><path class="cls-1" d="M403.6,65.08c110,0,199.14,89.16,199.14,199.15S513.58,463.37,403.6,463.37,204.45,374.21,204.45,264.23,293.61,65.08,403.6,65.08m0-3.94a202.5,202.5,0,1,0,79,16,201.81,201.81,0,0,0-79-16Z"/></g><g id="bras_gauche" data-name="bras gauche"><path class="cls-3" d="M140.44,284.18a74,74,0,0,1-19.16-2.37c-9.86-2.61-17.55-9.65-21.64-19.81-2.11-5.24-5-19.64-7.23-31.21-1.2-6.1-2.24-11.38-2.93-14.14L89,214.73l1.93-.48a78.62,78.62,0,0,1,16.38-2.68l1.64,0,.35,1.61c.1.47.56,3.89,1.57,11.59.69,5.17,1.54,11.61,1.66,12.22,4.6,20.22,10.65,26.39,25.89,26.39a81.12,81.12,0,0,0,10.1-.73c8.09-1,16.34-2.34,24.31-3.61q5.6-.9,11.25-1.77l1.73-.26.47,1.69.62,2.16c.47,1.57.9,3.05,1.21,4.61.38,1.87.64,3.72,1,6.07.16,1.13.33,2.37.55,3.78l.29,2-1.95.3c-4.94.73-9.94,1.67-14.78,2.58C162.52,282.11,151.49,284.18,140.44,284.18Z"/><path class="cls-1" d="M107.36,213.55c.2.9,3,22.91,3.23,23.8,4.66,20.47,11.27,28,27.82,28a82.43,82.43,0,0,0,10.35-.75c11.83-1.49,23.58-3.54,35.61-5.38.66,2.4,1.37,4.49,1.8,6.63.54,2.71.86,5.46,1.51,9.76-15.84,2.36-31.39,6.65-47.24,6.65a72.4,72.4,0,0,1-18.65-2.31c-9.79-2.59-16.68-9.6-20.32-18.64-3.12-7.74-8-36.95-10.08-45.09a76,76,0,0,1,16-2.62m3.16-4.05-3.28.1a80.24,80.24,0,0,0-16.8,2.74l-3.84.95,1,3.84c.69,2.72,1.72,8,2.92,14,2.41,12.26,5.15,26.16,7.33,31.57,4.33,10.75,12.49,18.2,23,21a75.59,75.59,0,0,0,19.66,2.45c11.24,0,22.36-2.1,33.12-4.12,4.82-.91,9.8-1.84,14.7-2.57l3.91-.58-.59-3.92c-.22-1.4-.39-2.63-.55-3.76-.34-2.38-.61-4.26-1-6.18-.33-1.64-.78-3.17-1.26-4.78-.2-.69-.41-1.39-.61-2.13l-.93-3.38-3.47.53c-3.77.58-7.57,1.18-11.25,1.77-8.33,1.33-16.2,2.58-24.26,3.6a79,79,0,0,1-9.85.71c-14.18,0-19.57-5.56-24-24.8-.15-.9-1-7.09-1.63-12.08-1.22-9.29-1.49-11.26-1.6-11.76l-.7-3.21Z"/><path class="cls-4" d="M97.28,227.74c-.46,0-.93,0-1.41,0-7.17-.22-11.71-1.67-14.29-4.55-2-2.22-2.8-5.22-2.49-9.18l.13-1.53,4.12-.71a26.13,26.13,0,0,1-2.67-.47l-.39-.09a22.34,22.34,0,0,1-2.76-.87l-.54-.21a20.85,20.85,0,0,1-2.55-1.25l-.38-.23a20,20,0,0,1-2.3-1.62l-.18-.14a20.2,20.2,0,0,1-2.11-2.06l-.38-.43a23.58,23.58,0,0,1-1.77-2.4L67,201.5a25.76,25.76,0,0,1-1.53-2.91c-.71-1.61-1.38-3.28-2-5.12-.58-1.61-1.17-3.34-1.77-5.28-.77-2.42-1.5-5-2.18-7.34L59,179.13c-.56-2-1.13-4-1.74-6-.42-1.44.34-2.86,1.15-4.38l.44-.82a2.86,2.86,0,0,1,5.21.21c.42,1,.73,2,1,2.79a8.84,8.84,0,0,0,1.85,3.74c.56.56,1.06,1,1.53,1.43a13.41,13.41,0,0,0,2.07,1.53l.24.12.06,0a6.46,6.46,0,0,0,2.61,1,10,10,0,0,0,1.33.09A9,9,0,0,0,82,175.24l.27-.34.39-.19c.6-.29,1.17-.57,1.76-.84l.11-.05c.7-.32,1.33-.59,2-.83l1.72-.68L89,174c.21.43.41.91.61,1.43s.48,1.24.73,1.91c.1.29.21.59.32.88l5.53-1.93h.53a9.85,9.85,0,0,0,6.61-2.37l.28-.24,4-1.41,2,1.11.2.2a8.38,8.38,0,0,0,4.84,2.3l.21,0,.2.08.21.07c.24.08.46.16.68.22l.47.14.59.13.42.08.53.06h.11l.25,0h.14l.26,0a4.55,4.55,0,0,0,.52,0l.34-.06.55-.14.4-.14c.18-.06.36-.14.54-.22l.45-.22.6-.34.48-.3.69-.48.12-.09.39-.29.81-.65.53-.44c.33-.27.67-.58,1-.89l.47-.42q.78-.71,1.65-1.53l1.31-1.24,1.35,1.19a18.54,18.54,0,0,1,5,6.79,15.84,15.84,0,0,1,1.15,5.14,18.67,18.67,0,0,1,0,2.69,25,25,0,0,1-1.18,5.54c-3.62,11.2-11.65,16.15-20.42,19.7H118v2a16.61,16.61,0,0,1-.1,1.87c0,.16,0,.3-.06.45l0,.15c-.07.47-.12.84-.19,1.19,0,.17-.09.34-.14.51l-.08.32c-.08.29-.15.57-.25.85s-.13.36-.2.53l-.12.29c-.1.26-.21.51-.33.76s-.19.36-.29.53l-.13.23c-.13.23-.26.47-.41.7l-.37.51-.09.11c-.22.29-.38.51-.56.71s-.3.32-.45.48l-.09.08c-.22.22-.42.43-.64.63s-.37.31-.57.46-.53.41-.77.58-.46.3-.7.44-.52.32-.79.46-.5.26-.76.38l-.86.39-.82.31-.94.31-.87.25-1,.25-.93.19-1.08.18-1,.13c-.38.05-.76.08-1.15.12l-1,.07c-.4,0-.81,0-1.23.06l-1.07,0Z"/><path class="cls-1" d="M61.4,168.3a.89.89,0,0,1,.83.56c1.28,3.08,1.51,5.41,3.3,7.19.55.54,1.09,1,1.63,1.51a14.62,14.62,0,0,0,2.38,1.75l.24.12a8.38,8.38,0,0,0,3.41,1.27,12,12,0,0,0,1.57.1,11,11,0,0,0,8.82-4.32h0q.83-.42,1.68-.81l.19-.08c.58-.27,1.18-.52,1.77-.76q.29.62.57,1.32c1.3,3.31,2.64,8,5.63,11.07,3.47,3.54,8.87,6,13.82,7a17.41,17.41,0,0,0,1.92.28c.2,0,.4,0,.61,0,.44,0,.88.06,1.33.06h0a24.77,24.77,0,0,0,2.7-.17l.68-.08c.89-.12,1.78-.26,2.68-.45h0c.93-.2,1.87-.44,2.81-.7l.71-.2c.92-.27,1.85-.55,2.77-.85-12-.67-24.33.51-31-12.51l4-1.41h.15a11.87,11.87,0,0,0,8-2.84l2.84-1,1,.56a10.37,10.37,0,0,0,5.94,2.85l.26.09.75.25.55.15c.24.07.47.12.71.17l.5.09a5.41,5.41,0,0,0,.68.07l.47,0h.17l.36,0c.23,0,.47,0,.7,0l.52-.1c.22,0,.45-.1.67-.17a5.52,5.52,0,0,0,.53-.18c.22-.08.45-.18.67-.28l.54-.26.7-.4.55-.35c.24-.16.5-.34.75-.53s.38-.26.57-.41l.85-.69c.19-.15.37-.29.56-.46.34-.28.69-.6,1-.92l.48-.43c.54-.48,1.1-1,1.69-1.56a16.45,16.45,0,0,1,4.49,6.06,13.89,13.89,0,0,1,1,4.51,16.12,16.12,0,0,1,0,2.4,23.18,23.18,0,0,1-1.08,5.1c-4.72,14.56-17.06,17.72-29.69,22.29H116a15.21,15.21,0,0,1-.09,1.68c0,.19,0,.36-.08.54,0,.35-.09.7-.16,1s-.11.39-.16.59-.15.59-.25.87-.15.39-.23.59-.2.51-.32.75-.21.38-.31.57-.25.45-.4.67a6.41,6.41,0,0,1-.39.52c-.15.2-.3.41-.46.6s-.31.32-.47.48-.35.36-.54.53-.35.29-.53.43l-.62.47c-.2.13-.4.26-.61.38a7.76,7.76,0,0,1-.69.4l-.67.34-.77.34-.74.28-.85.29-.8.23L105,225l-.86.18-1,.17-.92.12-1.08.11-1,.07c-.38,0-.77,0-1.17.05s-.68,0-1,0h-.62c-.45,0-.9,0-1.36,0-11.17-.35-15.5-3.65-14.87-11.61l10.67-1.82c.2-.89.41-1.77.62-2.65h0c-.79.11-1.57.19-2.35.25l-.73,0c-.54,0-1.07,0-1.59,0H87c-1,0-2,0-2.9-.15l-.33-.05a24.44,24.44,0,0,1-2.63-.46l-.35-.07a23.45,23.45,0,0,1-2.54-.8l-.48-.19a20.73,20.73,0,0,1-2.32-1.13l-.34-.22A19.84,19.84,0,0,1,73,205.49l-.16-.13a17.72,17.72,0,0,1-1.91-1.87l-.34-.38a19.21,19.21,0,0,1-1.62-2.2l-.26-.43a22.58,22.58,0,0,1-1.41-2.68h0c-.73-1.64-1.39-3.31-2-5s-1.2-3.43-1.75-5.2c-.74-2.36-1.45-4.78-2.16-7.29s-1.45-5.09-2.24-7.77c-.24-.83.77-2.37,1.46-3.75a.87.87,0,0,1,.79-.49m0-4h0A4.82,4.82,0,0,0,57.08,167c-.12.26-.26.52-.4.78-.88,1.63-2,3.66-1.31,5.87.61,2.06,1.18,4.07,1.74,6l.48,1.71c.8,2.77,1.47,5.08,2.19,7.38.62,2,1.21,3.73,1.81,5.37.67,1.84,1.34,3.53,2.06,5.15l.06.18,0,.08a26.05,26.05,0,0,0,1.58,3l.07.12a3.26,3.26,0,0,0,.24.4,23.56,23.56,0,0,0,1.93,2.62c.11.13.22.26.34.38l.07.08a23.34,23.34,0,0,0,2.32,2.27l.25.19A20.86,20.86,0,0,0,73,210.32l.06,0,.35.22a24.3,24.3,0,0,0,2.8,1.37l.58.23.43.16-.12,1.5c-.36,4.53.62,8,3,10.65,3,3.36,7.85,5,15.7,5.22l1.48,0H98l1.07,0c.48,0,.91,0,1.32-.06l1.08-.08c.41,0,.82-.07,1.21-.12l1-.14,1.14-.19,1-.21,1.09-.26.94-.27,1-.35.89-.34c.33-.13.65-.28,1-.43s.57-.27.84-.42.6-.33.89-.51l.79-.5c.28-.2.55-.41.81-.61l.06,0c.23-.18.45-.35.66-.54s.52-.49.71-.69l.1-.1c.19-.19.37-.38.55-.58a9,9,0,0,0,.59-.74l0-.07.08-.1c.16-.21.31-.41.45-.62s.36-.6.49-.82l.06-.1.06-.12a6.77,6.77,0,0,0,.36-.65c.16-.33.28-.65.38-.9l0-.11,0-.13c.09-.22.18-.44.26-.66.13-.37.22-.72.29-1l0-.14,0-.13c.06-.21.12-.42.16-.64.1-.45.16-.86.21-1.23v-.19a5.4,5.4,0,0,0,.09-.58c.07-.68.1-1.37.11-2.07v-1.75c7.74-3.64,14.52-8.94,17.89-19.34a26.92,26.92,0,0,0,1.26-6,19.75,19.75,0,0,0,0-3,17.89,17.89,0,0,0-1.3-5.78,20.41,20.41,0,0,0-5.54-7.52l-2.7-2.38L127,169c-.58.54-1.11,1-1.63,1.51-.08.08-.16.14-.24.21l-.22.2c-.33.3-.66.59-1,.86l-.3.25-.21.17c-.25.21-.51.42-.75.6l-.33.25-.15.1c-.2.15-.41.3-.61.43l-.4.25-.51.3-.35.17-.41.16a1.57,1.57,0,0,1-.28.1l-.35.09-.25,0-.34,0-.23,0h-.28l-.39,0-.32-.06-.48-.11-.39-.11-.59-.2-.25-.08-.34-.13-.42-.06a6.4,6.4,0,0,1-3.72-1.75l-.41-.4-.5-.27-.31-.17-.68-.37-1.54-.85-1.67.58-2.83,1-.71.25-.57.49a8,8,0,0,1-5.28,1.89h-.9l-.65.23-1.38.48-2,.7-.39-1c-.24-.59-.45-1.1-.66-1.54l-1.57-3.35-3.44,1.35c-.6.23-1.23.5-2,.84l0,0-.15.07c-.6.27-1.19.56-1.78.85l-.78.39-.56.69a7.14,7.14,0,0,1-5.75,2.84,10.09,10.09,0,0,1-1.09-.06,4.65,4.65,0,0,1-1.82-.72l-.1-.06-.11-.06-.2-.1a11.25,11.25,0,0,1-1.7-1.27c-.43-.37-.9-.81-1.44-1.34a7.77,7.77,0,0,1-1.36-3c-.29-.86-.61-1.84-1.06-2.93a4.83,4.83,0,0,0-4.48-3Z"/><path class="cls-4" d="M74.75,178.82a9.74,9.74,0,0,1-1.32-.08c-4.55-.55-8.81-7.29-10.25-11.68-.23-.67-.43-1.37-.61-2.08a35.57,35.57,0,0,1-.8-4.35,39,39,0,0,1-.26-4.46,35.85,35.85,0,0,1,.6-6.55,24.29,24.29,0,0,1,1.06-3.74,25.77,25.77,0,0,1,1.71-3.72c1.09-1.91,2.92-4.45,5.44-5.63a6,6,0,0,1,1.74-.51l.46-.05h.1c.26,0,.51,0,.77,0h.46l.62.05c.41,0,.83.11,1.26.19l.13,0,.38.07c.58.12,1.16.27,1.77.45l.15,0,1.79.55,2.37.75,1.35.41.67.19,1.08.29.71-.63c2-1.75,4.92-4.39,8.48-5.13a9,9,0,0,1,1.76-.17l.38,0a10.32,10.32,0,0,1,1.34.13c.16,0,.31.06.47.09l.15,0c.35.07.69.14,1.05.24l.61.17,1,.33.7.24,1.36.5,1.76.66,1.1.4.62.22.92.3c.64-.35,1.3-.68,2-1l.58-.26.24-.1c.67-.29,1.28-.54,1.86-.74l.88-.3c.59-.18,1.18-.33,1.82-.47l.19,0,.52-.11a15.14,15.14,0,0,1,2.39-.23h0a11,11,0,0,1,1.73.13l.35.06a11.68,11.68,0,0,1,1.5.38l.28.09a10.75,10.75,0,0,1,1.53.74l.27.18a10.31,10.31,0,0,1,1.21.91l.28.25a11.19,11.19,0,0,1,1.16,1.3l.18.26a13.27,13.27,0,0,1,.86,1.35l.21.39a17.55,17.55,0,0,1,.79,1.78l.09.25c.21.62.39,1.19.55,1.8l.14.53c.19.77.34,1.5.46,2.23l0,.19c.12.77.21,1.52.28,2.29l.06.67c.08,1,.13,1.86.15,2.71a44,44,0,0,1-.81,9.49,43.35,43.35,0,0,1-2.81,9.09,5.46,5.46,0,0,1-.88,1.39c-.1.12-.22.24-.34.36l-.09.08a9.86,9.86,0,0,1-.73.71c-.13.1-.27.21-.42.31l-.12.09c-.32.23-.55.4-.81.56l-.49.28-.14.08-.87.46-.57.25-.11.05q-.45.19-.9.36l-.68.22c-.34.11-.64.19-.94.27l-.73.15c-.31.06-.61.11-.91.14s-.48.05-.72.06h-.5a4.1,4.1,0,0,1-.5,0h-.16l-.16,0a8.28,8.28,0,0,1-6-3.22,9.66,9.66,0,0,1-1.74-5.6c-.16.56-.35,1.12-.56,1.68l-.07.2a18,18,0,0,1-.81,1.72l-.14.24a10.57,10.57,0,0,1-1,1.53l-.18.23a10.88,10.88,0,0,1-1.32,1.31l-.21.16a9.84,9.84,0,0,1-1.65,1l-.2.09a9.57,9.57,0,0,1-2,.68l-.22,0a11.41,11.41,0,0,1-2.24.22h0c-.3,0-.59,0-.89,0l-.41,0a9.88,9.88,0,0,1-4.83-1.64A8,8,0,0,1,89,173a11.63,11.63,0,0,1-2.13-5.94c-.07-.62-.13-1.3-.17-2.06s-.06-1.35-.08-2q-.06-1.84-.18-3.69c0-.66-.09-1.34-.14-2q-.39,4.28-.81,8.53c0,.41-.09.81-.15,1.21l-.07.39c0,.27-.08.54-.14.8l-.1.47c-.06.29-.11.51-.17.72s-.13.48-.13.48c-.07.22-.13.45-.2.67l-.14.42c-.1.28-.18.49-.26.7s-.12.3-.19.45-.19.44-.29.63-.15.32-.23.47l-.31.56-.29.46-.36.53-.31.42-.41.48c-.12.13-.23.26-.36.39s-.3.3-.46.44l-.41.35c-.16.13-.34.26-.52.38s-.3.21-.44.29a6.38,6.38,0,0,1-.57.32l-.1,0-.39.19-.63.24-.12,0-.41.13a7,7,0,0,1-.69.15l-.14,0a2.26,2.26,0,0,1-.39.07,7,7,0,0,1-.92.07,2.62,2.62,0,0,1-.38,0Z"/><path class="cls-1" d="M96.36,135h0l.28,0a8.63,8.63,0,0,1,1.12.1l.53.11c.31.06.62.12.93.2l.62.18.92.29.67.23,1,.36,1,.37,1.12.42,1.13.41.64.22c.59.2,1.18.4,1.79.57.9-.52,1.77-1,2.63-1.36.26-.13.51-.23.77-.34.59-.26,1.17-.49,1.73-.69l.8-.27a16.11,16.11,0,0,1,1.65-.43l.63-.14a12.53,12.53,0,0,1,2.06-.19h0a10.76,10.76,0,0,1,1.41.1l.35.06a8.68,8.68,0,0,1,1.14.3l.23.07a7.14,7.14,0,0,1,1.21.59c.1.05.18.12.27.17a7.6,7.6,0,0,1,.91.7l.23.19a10,10,0,0,1,1,1.08,2.48,2.48,0,0,1,.19.26,11.7,11.7,0,0,1,.69,1.11c.06.11.13.22.19.34a14.07,14.07,0,0,1,.69,1.56c0,.1.07.21.11.3.17.5.33,1,.48,1.57,0,.16.09.32.13.49q.24,1,.42,2.07l0,.25c.11.67.19,1.38.26,2.11l.06.64c.06.83.12,1.69.14,2.6a42.67,42.67,0,0,1-3.45,17.73,4,4,0,0,1-.6.93c-.09.11-.2.2-.3.31s-.37.39-.6.58l-.45.33c-.22.16-.44.33-.69.48s-.36.2-.54.31l-.76.4-.61.26c-.26.12-.52.22-.79.32s-.42.14-.63.21-.53.16-.79.22l-.63.13-.76.12-.59,0h-.41l-.43,0h-.17c-4.87-.54-6.75-4.47-5.69-10.07.14-.74.26-1.49.36-2.24a66.73,66.73,0,0,0,.49-6.81c.1-3.06.09-6.13.24-9.17l-3.18-.26c-.16,2.45-.31,4.91-.5,7.36-.32,3.88-.4,7.8-1.07,11.62-.11.64-.25,1.26-.41,1.87l0,.13a17.38,17.38,0,0,1-.55,1.68c0,.07,0,.13-.07.19a13.59,13.59,0,0,1-.7,1.49l-.12.21a10.29,10.29,0,0,1-.87,1.28l-.15.19a8.16,8.16,0,0,1-1.07,1.05l-.18.15a7.78,7.78,0,0,1-1.29.81l-.2.09a7.43,7.43,0,0,1-1.55.52l-.18,0a9.06,9.06,0,0,1-1.85.19h0l-.76,0c-.12,0-.22,0-.34,0A7.69,7.69,0,0,1,91.76,173a5.76,5.76,0,0,1-1.23-1.18,10,10,0,0,1-1.73-5c-.08-.63-.13-1.28-.16-1.93s-.06-1.32-.08-2q-.06-1.87-.18-3.75c-.24-3.74-.61-7.48-.89-11.23l-2.35.11c-.55,5.86-1.06,11.72-1.64,17.57,0,.37-.09.74-.14,1.11l-.06.36c0,.25-.08.5-.13.74s-.07.28-.1.43-.09.43-.15.65l-.12.43c-.06.21-.11.41-.18.61l-.15.43c-.07.19-.13.38-.21.56a3.25,3.25,0,0,1-.18.43c-.07.18-.15.35-.23.52l-.21.41-.27.49c-.07.13-.15.25-.23.38a2.43,2.43,0,0,0-.14.2l-.17.24c-.08.12-.17.24-.26.35s-.22.27-.34.4-.19.22-.29.32-.24.24-.37.35l-.32.28-.41.3-.35.23-.46.25c-.12.06-.24.13-.36.18l-.52.19-.37.13-.59.13-.38.07c-.23,0-.48,0-.72.05l-.31,0h0a10,10,0,0,1-1.08-.06c-3.35-.41-7.26-6.22-8.62-10.34-.21-.64-.4-1.29-.57-2a34.1,34.1,0,0,1-.75-4.1,34.89,34.89,0,0,1-.25-4.22,33,33,0,0,1,.57-6.18,22.32,22.32,0,0,1,1-3.43,22.54,22.54,0,0,1,1.58-3.42,11.5,11.5,0,0,1,4.55-4.83h0a4.7,4.7,0,0,1,1.21-.34l.42,0a5.91,5.91,0,0,1,.6,0h.36l.51,0c.36,0,.72.1,1.09.17l.47.08q.8.18,1.65.42l.19.06c.54.16,1.11.33,1.69.52l1.49.47.89.28c.46.15.92.28,1.39.42l.69.2c.69.2,1.38.38,2.09.53,1.65-1.16,5.06-5.13,9.11-6a6.06,6.06,0,0,1,1.35-.13m0-3.95a10.74,10.74,0,0,0-2.15.21c-4,.83-7.19,3.62-9.31,5.51h0l-.48-.14-.17,0-1.32-.4-.14-.05-.73-.23-1.49-.47c-.61-.2-1.21-.38-1.79-.55l-.21-.06c-.63-.18-1.26-.34-1.88-.48l-.46-.09-.11,0c-.5-.09-1-.16-1.42-.21L74,134h-.56c-.3,0-.61,0-.93,0H72.4l-.64.07a8.61,8.61,0,0,0-1.88.5h0l-.32.15c-3,1.42-5.11,4.29-6.34,6.46a26.75,26.75,0,0,0-1.86,4,26,26,0,0,0-1.13,4.05,36.35,36.35,0,0,0-.64,6.92,38.47,38.47,0,0,0,.27,4.69,35.93,35.93,0,0,0,.85,4.6c.19.75.41,1.5.64,2.22,1.3,3.94,5.92,12.3,11.89,13a11.78,11.78,0,0,0,1.56.1,4.27,4.27,0,0,0,.54,0c.28,0,.65,0,1-.08l.55-.1.09,0c.22,0,.52-.1.86-.19q.27-.07.54-.18l.06,0h0l.77-.29.51-.25.07,0q.36-.18.72-.39a5.25,5.25,0,0,0,.49-.33l0,0c.22-.15.43-.3.64-.47s.33-.27.48-.41l.56-.53c.15-.15.29-.3.43-.46l.48-.58c.13-.16.25-.32.37-.49s.13-.18.19-.28l0-.05.19-.28c.1-.17.21-.34.31-.52s.25-.42.36-.64l.27-.53c.11-.22.21-.45.31-.67l0-.06c.07-.16.14-.32.2-.49s.11-.26.16-.4a10.49,10.49,0,0,0,1.32,2.23,9.67,9.67,0,0,0,2.06,2,11.64,11.64,0,0,0,5.79,2l.46,0c.34,0,.68,0,1,0a13.15,13.15,0,0,0,2.59-.26l.33-.06a11.64,11.64,0,0,0,2.31-.78l.31-.14a11.89,11.89,0,0,0,2-1.23l.28-.22a12.93,12.93,0,0,0,1.58-1.56l.21-.27c.21-.26.41-.52.6-.8a9.79,9.79,0,0,0,8,5l.22,0h1.4c.28,0,.57,0,.86-.07s.68-.09,1-.16l.82-.18c.35-.08.68-.18,1-.28s.54-.17.8-.27.67-.25,1-.4l.11,0,.65-.29c.33-.16.64-.33,1-.51l.14-.07c.2-.11.4-.22.59-.34.35-.22.64-.43.87-.6l.06-.05.1-.07c.18-.13.37-.26.54-.4.39-.33.68-.64.9-.86h0a6.16,6.16,0,0,0,.53-.56,8,8,0,0,0,1.17-1.86,44.71,44.71,0,0,0,2.93-9.5,45.42,45.42,0,0,0,.85-9.92c0-.89-.07-1.78-.15-2.81l-.06-.7c-.08-.86-.18-1.63-.29-2.35a2.36,2.36,0,0,0,0-.28c-.12-.77-.28-1.55-.48-2.37,0-.16-.08-.32-.13-.48l0-.09c-.18-.66-.37-1.29-.58-1.87,0-.15-.08-.26-.12-.37a20.56,20.56,0,0,0-.88-2l-.2-.36,0-.08a16.5,16.5,0,0,0-.94-1.49c-.1-.14-.18-.26-.26-.36a11.94,11.94,0,0,0-1.37-1.54l-.32-.28a10.56,10.56,0,0,0-1.38-1.06l0,0c-.12-.08-.24-.16-.37-.23a11.1,11.1,0,0,0-1.84-.89l-.4-.13a11.93,11.93,0,0,0-1.64-.43h-.07l-.44-.07a13.37,13.37,0,0,0-2-.15h0a16.75,16.75,0,0,0-2.71.25l-.64.14-.15,0c-.7.15-1.35.32-2,.52l-1,.32c-.63.22-1.28.48-2,.79l-.22.1c-.22.09-.43.18-.65.29-.47.22-.93.44-1.36.66l-.11,0-.37-.13L107,134l-.07,0c-.34-.12-.67-.23-1-.36l-1.1-.41-.74-.28-.26-.09c-.35-.14-.7-.26-1-.38l-.73-.26-1-.33-.74-.21c-.42-.11-.8-.19-1.16-.26l-.12,0-.58-.11a13.25,13.25,0,0,0-1.49-.14l-.5,0h0Z"/></g><g id="tete"><circle class="cls-3" cx="403.6" cy="263.72" r="162.15" transform="translate(-68.27 362.63) rotate(-45)"/><path class="cls-1" d="M403.6,103.55A160.18,160.18,0,1,1,243.42,263.72,160.17,160.17,0,0,1,403.6,103.55m0-4a164.12,164.12,0,1,0,116,48.07,163.08,163.08,0,0,0-116-48.07Z"/></g><g id="sous_visage" data-name="sous visage"><path class="cls-5" d="M426.26,380.47H425l-1.48,0-2.44-.06-1-.06-2.38-.15c-.81-.06-1.61-.12-2.41-.2l-.37,0-.91-.11-1.19-.14-2.53-.3-.52-.08-1.41-.2-.24,0c-1.51-.25-2.95-.52-4.29-.78l-.31-.06-.51-.09-.6-.12-.95-.19-.23-.05c-1.67-.37-3.27-.78-4.65-1.13l-.57-.14-.8-.2-.6-.15c-2.54-.7-4.82-1.39-7-2.12-1.59-.53-3.24-1.12-4.9-1.76A118.13,118.13,0,0,1,345.47,350c-1.43-1.3-2.67-2.48-3.79-3.62l-.23-.23c-11.92-12.23-23.86-31.85-22.64-41.54a7.69,7.69,0,0,1,1.75-4.19l.17-.19.18-.13a1.09,1.09,0,0,1,.17-.13,6.49,6.49,0,0,1,.86-.7l.18-.12a3.89,3.89,0,0,1,.5-.28l.14-.08.08,0a7.48,7.48,0,0,1,1.26-.47l.26-.1.11,0A4,4,0,0,1,325,298a12.12,12.12,0,0,1,1.4-.19l.23,0,.54,0h.42c.37,0,.75,0,1.14,0h.73l.1,0c.47,0,1,.11,1.47.19l.4.05.66.13c.16,0,1.51.3,1.51.3l.74.17,1.56.41.67.18c.73.21,1.46.44,2.2.68s1.58.53,2.35.81l.71.26,1.63.61.8.32,1.61.65.69.28c.76.32,1.51.64,2.25,1,1.39.57,2.87,1.15,4.37,1.73l1.38.52c1.12.42,2.25.84,3.41,1.24l.89.33.63.21c1.39.47,2.82.94,4.27,1.4l.7.22c1.33.41,2.77.83,4.67,1.35l1,.29.93.23c1.31.34,2.63.67,4,1l.66.16.57.13.52.1c1.61.36,3.28.7,4.94,1l.74.15c1.82.33,3.75.64,5.74.91l.36.06.57.06.52.06c1.64.21,3.13.38,4.55.51l.51.06.92.08.44,0c2.21.18,4.24.3,6.21.36h.14c1.37,0,2.69.07,4,.07l2.68,0h.23l.77,0,.66,0,.71,0,.92,0c1.19-.06,2.38-.11,3.59-.2l.51,0,1.11-.08.32,0c2.64-.24,4.83-.49,6.9-.79,1.48-.22,3-.48,4.84-.82l.82-.15c1.46-.28,2.94-.6,4.4-.93l.85-.2c1.57-.37,3-.72,4.25-1.07l.31-.09c1.34-.37,2.65-.75,3.94-1.14l.65-.19c1.28-.4,2.54-.81,3.76-1.22l.78-.26c1.21-.41,2.4-.83,3.56-1.25l.47-.17,3.22-1.2.51-.2,3.21-1.24,3.87-1.53,2.94-1.15.27-.11,2.72-1,.5-.18c.88-.32,1.74-.62,2.56-.88l2.25-.68.59-.18.11,0,.48-.11.24-.05c.42-.1.83-.2,1.24-.28l.49-.11.29-.05.24,0c.59-.1,1.18-.18,1.74-.22l.16,0,.37,0h2.37l.12,0,.54.09.19,0-.17,2,.27-1.95.29,0,.16,0,.39.1.34.1-.51,1.91.65-1.87.46.15a.47.47,0,0,1,.16.05l.54.21.31.16.41.2.27.14.43.24.07.05.08.06.38.27.25.18c.17.13.35.25.51.39,4,3.42,5.89,9.95,5.42,18.39-.57,10.44-4.72,22.59-11.1,32.52-1,1.52-2,3-3,4.36a59.9,59.9,0,0,1-7,7.73c-8.06,7.48-18.32,12.55-30.5,15.09l-1.86.38v0l-1.16.2v0l-1.52.23-.11.1h-.59c-.7.1-1.41.17-2.12.23l-1,.1-.84.09c-.54.07-1.09.13-1.64.17h-.18c-.46,0-.87.05-1.29.07l-.71,0-1.14.06-.64,0c-.65,0-1.3.06-2,.07Z"/><path class="cls-1" d="M327.24,299.76h.34l1,0c.19,0,.36,0,.56,0h.05c.53,0,1.08.13,1.65.21h0a2,2,0,0,0,.24,0l.61.12.67.13.15,0,.19,0,.41.09.72.16.48.13.18,0,.83.22.65.18c.71.2,1.42.42,2.14.66h0c.74.24,1.49.5,2.24.77l.7.26,1.6.6.78.31,1.59.64.68.28,2.22.95c1.44.6,2.93,1.19,4.45,1.77l1.4.53c1.13.42,2.27.84,3.44,1.25l.9.33,0,0,.6.19c1.41.49,2.85,1,4.32,1.42l.71.23q2.33.7,4.73,1.36l.47.14.46.13h0l1,.25c1.33.34,2.67.68,4,1l.66.16.58.13.52.11q2.47.56,5,1l.74.15q2.88.51,5.83.93l.36.05h.08c.34.05.69.08,1,.12,1.53.19,3.06.37,4.62.51l.51.06.93.08.46,0c2.07.16,4.17.29,6.3.36h.2c1.33,0,2.67.07,4,.07l2.72,0h.31l.7,0,.68,0c.44,0,.89,0,1.33-.07,1.32-.06,2.64-.11,4-.21l.5,0,1.14-.09.34,0c2.31-.21,4.64-.46,7-.8,1.68-.25,3.31-.53,4.91-.83l.84-.15c1.52-.3,3-.61,4.46-.95l.86-.2c1.47-.35,2.92-.71,4.32-1.09l.31-.09c1.36-.37,2.69-.75,4-1.15l.65-.2c1.31-.4,2.58-.81,3.82-1.23l.78-.26q1.85-.63,3.6-1.26l.48-.18c1.1-.4,2.18-.81,3.24-1.21l.52-.19,3.22-1.26.91-.35,3-1.18,2.93-1.15.26-.1c.93-.36,1.82-.69,2.7-1l.5-.19c.85-.31,1.69-.6,2.49-.86l.39-.12.6-.18.46-.14.4-.12.89-.26.09,0,.7-.15,1.16-.27.34-.07.39-.08.2,0c.55-.09,1.09-.16,1.61-.21l.16,0,.35,0h2a6.83,6.83,0,0,1,.77.12h.09l.23,0,.13,0,.39.1.25.08.08,0,.38.12.14,0,.42.17.13.07.07,0,.39.2.21.1.35.2.08.06.44.32c.18.13.37.25.55.4,3.62,3.12,5.14,9.3,4.73,16.78-.52,9.62-4.24,21.38-10.79,31.57-.93,1.44-1.91,2.86-2.95,4.23a58.47,58.47,0,0,1-6.75,7.48c-8.13,7.53-18.33,12.26-29.56,14.59h0c-1.67.35-3.36.63-5.06.87h0c-1,.15-2.07.22-3.1.33-.81.08-1.61.19-2.42.26h-.22c-.63,0-1.28.06-1.91.09l-1.12.06c-.85,0-1.7.08-2.55.1h-.74l-1.84,0h-.71c-.86,0-1.72,0-2.59-.06l-1.47-.09-1.32-.08-.54,0-2.37-.2-.37-.05-1.41-.17c-1-.11-2.08-.22-3.12-.37l-1.91-.27-.32-.06c-1.38-.22-2.75-.48-4.13-.75l-.81-.15-1.53-.3-.28-.07c-1.51-.33-3-.71-4.51-1.09-.45-.12-.91-.21-1.36-.33l-.59-.15c-2.31-.64-4.61-1.32-6.88-2.09q-2.43-.81-4.83-1.73a116.38,116.38,0,0,1-36.59-21.94c-1.27-1.16-2.51-2.33-3.7-3.54l-.22-.22c-11.86-12.17-23.21-31.08-22.1-39.93a5.7,5.7,0,0,1,1.28-3.13s.08-.06.11-.1.14-.09.2-.15a4.78,4.78,0,0,1,.78-.63l.05,0,.33-.19.07,0a5.87,5.87,0,0,1,1.13-.43L325,300h0c.12,0,.26,0,.37,0a12,12,0,0,1,1.26-.17h.14l.48,0h0m0-3.94h-.13l-.61,0a3.16,3.16,0,0,0-.32,0,13.83,13.83,0,0,0-1.44.19c-.16,0-.4.05-.67.11l-.22.05-.08,0a3.17,3.17,0,0,0-.33.11,10.82,10.82,0,0,0-1.41.54,2.09,2.09,0,0,0-.3.14c-.19.09-.38.2-.57.31l-.34.21-.1.08a9.62,9.62,0,0,0-.91.74l-.15.12a4.65,4.65,0,0,0-.58.55,9.54,9.54,0,0,0-2.22,5.25c-1.34,10.58,11,30.65,23.18,43.16l.22.21c1.16,1.19,2.42,2.4,3.88,3.72A120.14,120.14,0,0,0,382,374.12c1.69.64,3.36,1.24,5,1.78,2.19.74,4.51,1.45,7.08,2.15l.43.11.18,0,.88.21.52.13c1.48.38,3.05.78,4.66,1.13l.29.07,1,.2.58.11.54.1.29,0c1.35.27,2.81.55,4.27.78l.33.06,1.44.2.53.08c.88.12,1.75.22,2.59.31l.64.07.5.07,1,.11h.07l.32,0c.82.08,1.63.15,2.45.21l.36,0h.19l.89.06.47,0,.48,0c.35,0,.71,0,1.07.06.81,0,1.62,0,2.43.06h3.67c.67,0,1.34,0,2-.07l.66,0,1.16-.06.69,0c.42,0,.84,0,1.26-.07h.28c.58-.05,1.15-.11,1.73-.18l.79-.09,1-.09c.73-.07,1.49-.14,2.27-.25l1.53-.22,0,.09,1.42-.3,1.31-.18,0-.08,1.05-.22c12.54-2.61,23.12-7.85,31.45-15.57a63,63,0,0,0,7.2-8c1.07-1.42,2.13-2.93,3.13-4.49,6.56-10.2,10.82-22.72,11.41-33.48.5-9.07-1.67-16.17-6.1-20a5.6,5.6,0,0,0-.69-.52l-.09-.06-.08-.07-.42-.31-.25-.17-.46-.26-.06,0a2.91,2.91,0,0,0-.35-.18l-.44-.23-.08,0-.3-.15-.62-.25-.3-.1-.47-.14-.11,0,.07,0a4,4,0,0,0-.42-.13l-.08,0c-.15,0-.31-.09-.47-.12l-.31-.06-.3,0H485l-.13,0c-.2,0-.45-.08-.74-.11l-.12,0-.23,0h-2.44l-.35,0-.3,0c-.56.05-1.14.12-1.74.22l-.32.05-.34.06-.11,0-.36.08c-.45.09-.89.19-1.34.3l-.17,0c-.2,0-.39.08-.6.14l-.14,0-.63.18-.3.09-.27.08-.15.05-.11,0-.39.12-.19.05-.45.14-.14,0-.28.09c-.8.26-1.66.56-2.61.9l-.51.19-2.76,1-.15.06-.11,0c-1,.38-1.95.76-3,1.17l-.73.29-2.23.88-.55.21-.35.14-3.19,1.24-.27.1-.25.1-3.19,1.19-.23.08-.23.09c-1.09.39-2.28.81-3.53,1.23l-.76.26c-1.31.44-2.53.83-3.73,1.2l-.35.11-.29.08c-1.37.42-2.64.79-3.88,1.13l-.19.05-.11,0c-1.27.35-2.64.69-4.19,1.06l-.23.05-.62.15c-1.43.33-2.89.64-4.32.91l-.49.09-.32.06c-1.79.34-3.3.59-4.76.8-2,.3-4.19.55-6.78.78l-.32,0-.73.06-.39,0h-.11l-.38,0c-1.19.09-2.36.14-3.6.2H412l-.66,0-.63,0-.46,0h-.19l-.38,0h-.6l-2.65,0c-1.32,0-2.63,0-3.89-.06h-.16c-2-.06-4-.18-6.16-.36l-.35,0h-.09l-.91-.08-.14,0-.35,0c-1.39-.13-2.86-.3-4.49-.51l-.58-.06-.42-.05h-.13l-.29-.05c-1.95-.27-3.86-.58-5.67-.91l-.57-.1-.1,0h0c-1.64-.3-3.29-.64-4.89-1l-.35-.07-.16,0-.36-.08-.21-.05-.23-.05-.41-.11c-1.24-.28-2.52-.6-3.92-1l-.55-.13-.43-.11h-.06l-.1,0-.32-.09-.15,0-.3-.09c-1.88-.52-3.3-.93-4.62-1.33l-.33-.11-.36-.12c-1.42-.44-2.84-.91-4.22-1.38l-.37-.12-.22-.07-.43-.16-.49-.18c-1.14-.4-2.27-.81-3.36-1.22l-.43-.16-.94-.36c-1.62-.62-3-1.19-4.33-1.72l-2.24-1-.45-.18-.24-.1-1.65-.67-.81-.31-1.65-.63-.22-.08-.51-.19c-.88-.31-1.65-.58-2.36-.81h-.07c-.72-.24-1.45-.46-2.24-.69l-.48-.13-.22-.06-.68-.18-.22-.06h0l-.13,0-.17-.05-.36-.09-.78-.18-.35-.08-.11,0-.22,0-.13,0-.22,0-.55-.12-.18,0-.51-.09-.26,0h-.1c-.52-.08-1.11-.16-1.7-.22h-.12l-.18,0h-.59c-.43,0-.84,0-1.23,0h-.34Z"/><path class="cls-5" d="M332.56,278.18a54.47,54.47,0,1,1,14.28-1.9A54.76,54.76,0,0,1,332.56,278.18Z"/><path class="cls-1" d="M332.56,171.18a52.52,52.52,0,1,1-43.73,23.43,52.59,52.59,0,0,1,43.73-23.43m0-4a56.44,56.44,0,1,0,14.8,2,56.39,56.39,0,0,0-14.8-2Z"/><path class="cls-5" d="M480.3,280.7a54.49,54.49,0,1,1,0-109,54.49,54.49,0,1,1,0,109Z"/><path class="cls-1" d="M480.3,173.69a52.52,52.52,0,1,1-43.73,23.43,52.51,52.51,0,0,1,43.73-23.43m0-3.94a56.44,56.44,0,1,0,14.8,2,56.37,56.37,0,0,0-14.8-2Z"/></g><g id="visage"><path class="cls-1" d="M310.56,319.35c-2.82-6.16-4.46-12.18-3.83-17.15a13.5,13.5,0,0,1,3.16-7.36,7.85,7.85,0,0,1,1.07-1l.11-.09a11.6,11.6,0,0,1,1.85-1.38,9.13,9.13,0,0,1,.82-.45l.58-.3.18-.05A12,12,0,0,1,316,291h0l.28-.1.28-.1.42-.1a8.51,8.51,0,0,1,1-.18c.37-.07.74-.12,1.12-.17l.44,0h.11l.21,0h.2c.25,0,.5,0,.77,0h.47c.46,0,1,0,1.44,0h.62l.31,0,.18,0h.08c.61.06,1.2.14,1.72.22h.08l.14,0,.33,0,.61.11.16,0,.62.12h0l.18,0h0l.78-4.87c-.25-.05-.5-.11-.81-.16l-.76-.14-.74-.11c-.57-.08-1.19-.17-1.71-.21l-1.29-.1h-.39c-.55,0-1.08,0-1.43,0h-.75l-1.15.05-1,.1c-.44,0-.87.11-1.29.19a13.28,13.28,0,0,0-1.45.26l-1.38.41c-.55.17-1.1.38-1.64.6l-1.27.58c-.39.2-.76.4-1.12.62A17.11,17.11,0,0,0,307.9,290a13.42,13.42,0,0,0-1.72,1.65,18.38,18.38,0,0,0-4.35,10c-.81,6.47,1.39,13.92,4.89,21.17C308,321.66,309.31,320.53,310.56,319.35Z"/><g id="bouche"><path class="cls-6" d="M488.71,302.13c-.18-.15-.37-.27-.55-.4l-.44-.32-.08-.06-.35-.2-.21-.1-.39-.2-.07,0-.13-.07-.42-.17-.14,0-.38-.12-.08,0-.25-.08-.39-.1-.13,0-.23,0h-.09a6.83,6.83,0,0,0-.77-.12h-2l-.35,0-.16,0c-.52,0-1.06.12-1.61.21l-.2,0-.39.08-.34.07-1.16.27-.7.15-.09,0-.89.26-.4.12-.46.14-.6.18-.39.12c-.8.26-1.64.55-2.49.86l-.5.19c-.88.32-1.77.65-2.7,1l-.26.1L465,305l-3,1.18-.91.35-3.22,1.26-.52.19c-1.06.4-2.14.81-3.24,1.21l-.48.18q-1.76.63-3.6,1.26l-.78.26c-1.24.42-2.51.83-3.82,1.23l-.65.2c-1.3.4-2.63.78-4,1.15l-.31.09c-1.4.38-2.85.74-4.32,1.09l-.86.2c-1.46.34-2.94.65-4.46.95l-.84.15c-1.6.3-3.23.58-4.91.83-2.36.34-4.69.59-7,.8l-.34,0-1.14.09-.5,0c-1.33.1-2.65.15-4,.21-.44,0-.89.06-1.33.07l-.68,0-.7,0h-.31q-3.41.07-6.74,0h-.2c-2.13-.07-4.23-.2-6.3-.36l-.46,0-.93-.08-.51-.06c-1.56-.14-3.09-.32-4.62-.51-.34,0-.69-.07-1-.12h-.08l-.36-.05c-2-.28-3.92-.59-5.83-.93l-.74-.15q-2.53-.47-5-1l-.52-.11-.58-.13-.66-.16c-1.36-.32-2.7-.66-4-1l-1-.25h0l-.46-.13-.47-.14q-2.4-.66-4.73-1.36l-.71-.23c-1.47-.46-2.91-.93-4.32-1.42l-.6-.19,0,0-.9-.33c-1.17-.41-2.31-.83-3.44-1.25l-1.4-.53c-1.52-.58-3-1.17-4.45-1.77l-2.22-.95-.68-.28-1.59-.64-.78-.31-1.6-.6-.7-.26c-.75-.27-1.5-.53-2.25-.77h0c-.72-.24-1.43-.46-2.14-.66l-.65-.18-.83-.22-.18,0-.48-.13-.72-.16-.41-.09-.19,0-.15,0-.67-.13-.61-.12a2,2,0,0,1-.24,0h0c-.57-.08-1.12-.17-1.65-.21h-.05c-.2,0-.37,0-.56,0-.42,0-.82,0-1.21,0h-.18l-.48,0h-.14a12,12,0,0,0-1.26.17c-.11,0-.25,0-.37,0h0l-.24.09a5.87,5.87,0,0,0-1.13.43l-.07,0-.33.19-.05,0a4.78,4.78,0,0,0-.78.63c-.06.06-.14.09-.2.15s-.08.06-.11.1a5.7,5.7,0,0,0-1.28,3.13c-1.11,8.85,10.24,27.76,22.1,39.93l.22.22c1.19,1.21,2.43,2.38,3.7,3.54h0a57,57,0,0,1,8.68-6.07,56.58,56.58,0,0,1,54.08-1.06,57.6,57.6,0,0,1,5.16,3,56.93,56.93,0,0,1,20.06,23.32c.7-.08,1.41-.13,2.1-.23,1.17-.17,2.19-.34,3.15-.52A62.14,62.14,0,0,0,420.2,342a56.57,56.57,0,0,1,51.52,6.19,57.46,57.46,0,0,1,8,6.51h0c1-1.37,2-2.79,2.95-4.23,6.55-10.19,10.27-22,10.79-31.57C493.85,311.43,492.33,305.25,488.71,302.13Z"/><path class="cls-7" d="M426.25,380.29h-2.76c-.81,0-1.62,0-2.44-.07l-1-.05-2.39-.15c-.81-.06-1.61-.13-2.41-.21l-.37,0-.91-.1-.54-.07-.65-.07c-.84-.1-1.68-.19-2.53-.31l-.52-.07-1.41-.2-.33-.06c-1.45-.24-2.88-.51-4.2-.77l-.33-.06A4.21,4.21,0,0,1,403,378l-.61-.12-.94-.18-.23-.06c-1.64-.36-3.19-.75-4.65-1.13l-.55-.13-.83-.2-.59-.15c-2.54-.7-4.82-1.39-7-2.12-1.58-.53-3.23-1.12-4.9-1.76a118.13,118.13,0,0,1-37.21-22.32l-1.53-1.39,1.55-1.56.08-.06a58.64,58.64,0,0,1,37.85-13.93c1.7,0,3.42.07,5.13.22A58.5,58.5,0,0,1,436,365.42l.66-.08.55-.08A60.13,60.13,0,0,0,419,343.4l-2.91-2.16,3.4-1.27a58.31,58.31,0,0,1,20.42-3.69c1.7,0,3.43.08,5.13.23a59,59,0,0,1,36,16.56l.29.28h0l1,1-1,1.37a59.9,59.9,0,0,1-7,7.73c-8.06,7.47-18.32,12.55-30.5,15.08l-1.85.39v0l-1.27.21v0l-2.07.31c-.71.1-1.44.17-2.16.24l-1,.1-.82.09c-.55.06-1.1.13-1.66.17h-.18l-1.3.07-.7,0-1.14.05-.65,0c-.65,0-1.3.06-1.95.07Z"/><path class="cls-1" d="M383.42,334.81c1.64,0,3.29.07,5,.22a56.31,56.31,0,0,1,21.18,6.15,55.3,55.3,0,0,1,5.16,3,56.86,56.86,0,0,1,20.06,23.32c.7-.08,1.41-.14,2.1-.23,1.17-.17,2.19-.34,3.15-.52a62.17,62.17,0,0,0-19.83-25,56.2,56.2,0,0,1,19.73-3.56c1.64,0,3.29.07,5,.21a57,57,0,0,1,34.8,16.06h0A57.15,57.15,0,0,1,473,362c-8.13,7.54-18.33,12.26-29.56,14.6h0c-1.67.34-3.36.62-5.06.86h0v0c-1,.14-2.07.22-3.1.33-.81.08-1.61.19-2.42.25h-.22c-.63.05-1.28.06-1.91.1l-1.12.05c-.85,0-1.7.09-2.55.1h-.74l-1.84,0h-.71c-.86,0-1.72,0-2.59-.07l-1.47-.09-1.32-.08-.54,0c-.79-.06-1.58-.12-2.37-.2l-.37,0-1.41-.17c-1-.12-2.08-.23-3.12-.37l-1.91-.27-.32-.06c-1.38-.22-2.75-.48-4.13-.75l-.81-.15-1.53-.3-.28-.07c-1.51-.33-3-.71-4.51-1.1-.45-.11-.91-.21-1.36-.33-.2-.05-.4-.09-.59-.15-2.31-.63-4.61-1.32-6.88-2.08q-2.43-.83-4.83-1.73a116.56,116.56,0,0,1-36.59-21.94h0a57,57,0,0,1,8.68-6.08,56.28,56.28,0,0,1,27.94-7.42m0-3.94h0a60.46,60.46,0,0,0-29.9,7.93,61.75,61.75,0,0,0-9.24,6.48l-3.51,2.89,3.37,3.07A120.31,120.31,0,0,0,382,373.94c1.69.64,3.36,1.24,5,1.79,2.19.74,4.51,1.44,7.08,2.15l.42.1.19,0,.88.22.52.12c1.47.38,3.05.78,4.66,1.13l.29.08,1,.19.58.12.54.1.29.05c1.35.26,2.8.54,4.27.77l.34.06c.47.08,1,.15,1.43.21l.53.07c.88.13,1.74.22,2.58.32l.65.07.5.06,1,.11h.06l.32,0c.82.08,1.63.15,2.45.21l.36,0h.19l.89.05.47,0,.48,0,1.07.07c.81,0,1.62,0,2.44.06h3.66c.67,0,1.34,0,2-.08l.66,0,1.16-.06.69,0,1.26-.07h.28c.58-.05,1.16-.12,1.73-.18l.79-.09,1-.1c.73-.07,1.49-.14,2.27-.25l1.6-.22,0,.08,1.35-.28,1.42-.2,0-.09.95-.2c12.54-2.6,23.12-7.84,31.45-15.56a63.12,63.12,0,0,0,7.2-8l2.08-2.74-2.43-2.44-.11-.1h0a60.87,60.87,0,0,0-37.13-17.09c-1.76-.15-3.54-.23-5.3-.23a59.87,59.87,0,0,0-21.11,3.82l-4,1.48c-1.11-.67-2.27-1.32-3.45-1.93a60,60,0,0,0-22.66-6.58c-1.76-.16-3.54-.23-5.3-.23Z"/></g><g id="oeil"><path class="cls-1" d="M346.91,173a52.61,52.61,0,0,0-35.85,33.49l31.3,17.19-30.66,19a52.66,52.66,0,0,0,35.21,31.73,52.52,52.52,0,0,0,0-101.37Z"/></g><g id="oeil-2" data-name="oeil"><path class="cls-1" d="M494.9,175.35a52.61,52.61,0,0,0-35.85,33.49L490.35,226l-30.66,19a52.66,52.66,0,0,0,35.21,31.73,52.52,52.52,0,0,0,0-101.37Z"/></g></g><g id="sous_nez" data-name="sous nez"><path class="cls-5" d="M414.25,296.78c-16.75,0-35.9-5.19-37.65-13.57-.63-3,.84-6.83,4.24-11,7.86-9.66,24.48-19.66,38.7-19.66a24.05,24.05,0,0,1,13.38,3.72c9,5.89,15.84,20.46,10.76,29.71C439.92,292.84,429.19,296.78,414.25,296.78Z"/><path class="cls-1" d="M419.54,254.51a22.12,22.12,0,0,1,12.3,3.41C440.45,263.53,446.35,277,442,285c-3.82,7-15.44,9.79-27.7,9.79-16.55,0-34.28-5.11-35.72-12-1.84-8.84,21.61-28.29,41-28.3h0m0-3.94h0c-14.81,0-32.08,10.36-40.23,20.38-3.84,4.73-5.4,9-4.64,12.67,2.3,11,25.5,15.13,39.58,15.13,9.21,0,25.51-1.53,31.16-11.83s-1.49-25.83-11.41-32.31a26,26,0,0,0-14.46-4Z"/></g><g id="nez"><path id="nez-2" data-name="nez" class="cls-7" d="M419.54,254.51a22.12,22.12,0,0,1,12.3,3.41C440.45,263.53,446.35,277,442,285c-3.82,7-15.44,9.79-27.7,9.79-16.55,0-34.28-5.11-35.72-12-1.84-8.84,21.61-28.29,41-28.3"/><path class="cls-5" d="M411,266.05c-.65-3.12,9.66-10.84,15.31-7.15,2.47,1.61,4.17,5.48,2.91,7.79C426.6,271.4,411.69,269.5,411,266.05Z"/></g></g></g></svg>